<svg width="127" height="40" viewBox="0 0 127 40" fill="none" xmlns="http://www.w3.org/2000/svg">
<g clip-path="url(#clip0_1_82)">
<path d="M13.0209 8.59763V28.5429L17.5782 29.9737V13.2498C17.5782 12.4618 17.9328 11.9386 18.5015 12.1185C19.245 12.3229 19.3895 13.0488 19.3895 13.8281V20.5073C22.2263 21.8679 24.4596 20.5066 24.4596 16.9168C24.4596 13.2484 23.1502 11.6142 19.2974 10.3003C17.7778 9.79891 14.9614 8.95277 13.0209 8.59763Z" fill="#1A1A1A"/>
<path d="M18.4444 27.0577L25.7638 24.4761C26.5918 24.1719 26.7184 23.7587 26.0483 23.5415C25.3676 23.3203 24.1528 23.3836 23.3159 23.6814L18.4444 25.3844V22.6672L18.7234 22.5759C18.7234 22.5759 20.1335 22.0809 22.1168 21.8678C24.0963 21.6527 26.5239 21.8957 28.4319 22.6084C30.5812 23.285 30.8221 24.272 30.2783 24.9588C29.7267 25.6385 28.389 26.1302 28.389 26.1302L18.4444 29.6703" fill="#1A1A1A"/>
<path d="M4.67043 26.7829C2.46676 26.1746 2.09928 24.8891 3.10458 24.1466C4.03189 23.4685 5.61114 22.9581 5.61114 22.9581L12.1394 20.6516V23.2767L7.4459 24.9439C6.61453 25.2386 6.48988 25.6532 7.15952 25.8702C7.84113 26.0959 9.05074 26.0352 9.8826 25.731L12.1394 24.9247V27.2682C11.9939 27.2924 11.8322 27.3168 11.6846 27.3417C9.43449 27.7118 7.03727 27.5598 4.67043 26.7829Z" fill="#1A1A1A"/>
<path d="M45.7955 13.8318L40.2919 13.8295C40.2692 13.8295 40.251 13.8473 40.251 13.8679V26.6232C40.251 26.6436 40.2692 26.6628 40.2919 26.6628H42.5224L42.5616 26.6232L42.5643 15.2524L42.5774 15.2335L45.1313 15.2287C46.0613 15.2287 46.5721 16.1574 46.5721 17.8402C46.5721 19.5239 46.0613 20.4547 45.1313 20.4547L43.5942 20.453C43.5712 20.453 43.5557 20.4703 43.5557 20.4921V21.8155C43.5557 21.8413 43.5712 21.857 43.5942 21.857H45.7955C46.5721 21.857 47.3326 21.5004 47.8814 20.8876C48.5317 20.1602 48.8741 19.1102 48.8741 17.8518C48.8741 15.4132 47.6721 13.8318 45.7955 13.8318Z" fill="#1A1A1A"/>
<path d="M52.5217 13.8295H50.2898C50.2645 13.8295 50.2463 13.8473 50.2463 13.8679V26.6232C50.2463 26.6439 50.2645 26.6628 50.2898 26.6628H52.5217L52.5626 26.6232V13.8679L52.5217 13.8295Z" fill="#1A1A1A"/>
<path d="M62.2565 16.934C62.2565 16.9115 62.2364 16.8944 62.2144 16.8944H58.2399C54.6759 16.8944 54.2203 19.4869 54.2203 21.7652L54.223 23.7356C54.223 25.4312 55.2871 26.6624 56.7501 26.6624H58.9186L58.9578 26.623V25.301C58.9578 25.2795 58.9394 25.2603 58.9186 25.2603L57.3697 25.2629C57.0128 25.2555 56.5324 25.1059 56.5324 23.8902V21.7629C56.5307 20.3492 56.6635 19.4454 56.9597 18.9312C57.2805 18.3636 57.7855 18.2875 58.2399 18.2875H59.934L59.9483 18.3074L59.9462 26.623C59.9462 26.6431 59.9634 26.6624 59.9871 26.6624H62.2149C62.2369 26.6624 62.2565 26.6431 62.2565 26.623" fill="#1A1A1A"/>
<path d="M78.3097 19.1671L77.2106 19.0841C76.3864 19.0137 75.7734 18.5613 75.7734 17.223C75.7734 15.6604 76.4806 15.233 77.4247 15.233H80.4667L80.5071 15.1941V13.8676L80.4667 13.8295H80.403L77.1075 13.8302C75.0313 13.8302 73.5549 15.0386 73.5549 17.4468V17.5516C73.5549 19.4518 74.7349 20.8233 76.4933 20.9566L77.5871 21.0369C78.4216 21.0995 78.9413 21.839 78.9413 22.9611V23.2766C78.9413 23.9781 78.7642 25.2617 77.246 25.2617H74.0853C74.064 25.2617 74.0456 25.2799 74.0456 25.3025V26.6228L74.0853 26.6624H78.0094C79.2185 26.6624 81.2433 26.1775 81.2433 22.9163C81.2433 21.7346 80.9724 20.8034 80.4234 20.1303C79.9554 19.5523 79.2621 19.2396 78.3097 19.1671Z" fill="#1A1A1A"/>
<path d="M96.5894 16.934C96.5894 16.9115 96.5705 16.8944 96.5494 16.8944H92.566C89.0097 16.8944 88.5494 19.4869 88.5494 21.7652L88.5522 23.7356C88.5522 25.4312 89.6154 26.6624 91.0861 26.6624H93.2486L93.2888 26.623V25.301C93.2888 25.2795 93.2699 25.2603 93.2486 25.2603L91.6988 25.2629C91.3433 25.2555 90.8672 25.1059 90.8657 23.8902V21.7629C90.8657 20.3492 91 19.4454 91.2892 18.9312C91.6103 18.3636 92.1187 18.2875 92.5653 18.2875H94.2671L94.2838 18.3074L94.2797 26.623C94.2797 26.6431 94.2982 26.6624 94.3204 26.6624H96.5514C96.5734 26.6624 96.5894 26.6431 96.5894 26.623" fill="#1A1A1A"/>
<path d="M87.6228 16.8949H85.2016L85.189 16.8802V15.2728C85.189 15.2515 85.1725 15.2335 85.15 15.2335H82.9202C82.8975 15.2335 82.8776 15.2515 82.8776 15.2728V23.737C82.8776 25.4324 83.9442 26.6628 85.4127 26.6628H87.0096C87.0326 26.6628 87.0503 26.6436 87.0503 26.6232V25.3027C87.0503 25.2811 87.0326 25.2608 87.0096 25.2608H86.0292C85.778 25.257 85.189 25.2444 85.1866 23.9952V18.297L85.2002 18.2842C85.9419 18.288 87.6228 18.2842 87.6228 18.2842L87.662 18.2479V16.9345C87.662 16.9122 87.6436 16.8949 87.6228 16.8949Z" fill="#1A1A1A"/>
<path d="M103.194 16.8949H100.786L100.77 16.8802V15.2728L100.733 15.2335H98.4987C98.4767 15.2335 98.4575 15.2515 98.4575 15.2728V23.737C98.4575 25.4324 99.5222 26.6628 100.99 26.6628H102.586C102.61 26.6628 102.626 26.6436 102.626 26.6232V25.3027C102.626 25.2811 102.61 25.2608 102.586 25.2608H101.606C101.354 25.257 100.77 25.2444 100.77 23.9952V18.297L100.783 18.2842C101.519 18.288 103.194 18.2842 103.194 18.2842L103.233 18.2479V16.9345C103.233 16.9122 103.213 16.8949 103.194 16.8949Z" fill="#1A1A1A"/>
<path d="M106.881 16.8949H104.652C104.631 16.8949 104.611 16.9122 104.611 16.9345V26.6232L104.652 26.6628H106.881C106.906 26.6628 106.923 26.6436 106.923 26.6232V16.9345C106.923 16.9122 106.906 16.8949 106.881 16.8949Z" fill="#1A1A1A"/>
<path d="M106.881 13.8291H104.652L104.611 13.8675V15.7198C104.611 15.7423 104.631 15.7589 104.652 15.7589H106.881C106.906 15.7589 106.923 15.7423 106.923 15.7198V13.8675C106.923 13.8469 106.906 13.8291 106.881 13.8291Z" fill="#1A1A1A"/>
<path d="M122.308 16.8949H118.329C118.308 16.8949 118.29 16.9122 118.29 16.9345L118.289 26.6232L118.326 26.6628H120.559L120.597 26.6232L120.594 18.3053L120.61 18.2892L122.306 18.288C122.765 18.288 123.269 18.3613 123.591 18.8871C123.885 19.3622 124.019 20.1974 124.019 21.5083C124.021 21.5649 124.017 26.6232 124.017 26.6232C124.017 26.6436 124.035 26.6628 124.057 26.6628H126.281C126.305 26.6628 126.323 26.6436 126.323 26.6232V21.7643C126.323 19.4871 125.864 16.8949 122.308 16.8949Z" fill="#1A1A1A"/>
<path d="M114.022 24.6191C113.671 25.1919 113.114 25.2685 112.608 25.2685C112.108 25.2685 111.549 25.1919 111.194 24.6191C110.874 24.1037 110.726 23.2007 110.726 21.7768V21.7654C110.726 20.085 110.935 19.1302 111.401 18.6755C111.681 18.3996 112.043 18.2877 112.608 18.2877C113.182 18.2877 113.54 18.3996 113.819 18.6755C114.282 19.1302 114.491 20.089 114.491 21.7768C114.491 23.2026 114.342 24.1063 114.022 24.6191ZM112.608 16.8948C108.884 16.8948 108.407 19.4994 108.407 21.7768C108.407 24.0568 108.884 26.6699 112.608 26.6699C116.333 26.6699 116.808 24.0568 116.808 21.7768C116.808 19.4994 116.333 16.8948 112.608 16.8948Z" fill="#1A1A1A"/>
<path d="M63.5148 16.8949L63.489 16.9333L66.7972 26.5334C66.8027 26.5549 66.8027 26.5881 66.7958 26.6092L64.9331 31.3624C64.9252 31.385 64.9355 31.4016 64.9575 31.4016H66.8972C66.9212 31.4016 66.9463 31.385 66.9542 31.3624L72.7616 16.9333C72.7697 16.9103 72.7594 16.8949 72.7367 16.8949H70.6204C70.5974 16.8949 70.5732 16.9122 70.5661 16.9333L68.1073 23.2417H68.0798L65.9092 16.9333C65.9041 16.9103 65.8793 16.8949 65.857 16.8949" fill="#1A1A1A"/>
</g>
<defs>
<clipPath id="clip0_1_82">
<rect width="126.963" height="22.804" fill="white" transform="translate(0 8.59802)"/>
</clipPath>
</defs>
</svg>
