<svg width="120" height="40" viewBox="0 0 120 40" fill="none" xmlns="http://www.w3.org/2000/svg">
<path d="M31.609 5.1502C31.4377 5.15214 31.266 5.15644 31.0936 5.16292C29.8752 5.21009 28.2466 5.46085 26.9574 5.81815C26.0478 6.06754 25.4287 6.46772 24.9952 7.23592C24.7791 7.62038 24.5814 8.03554 24.6891 8.4593C24.7833 8.81946 25.2927 8.94449 25.7022 9.01166C26.0953 9.07311 26.9906 9.12462 27.2286 8.83091C27.3313 8.70442 27.3194 8.58504 27.2344 8.43354C27.1465 8.27276 26.9192 8.15642 26.7038 8.11497C26.4615 8.07067 25.9933 8.04271 25.8821 7.9934C25.8204 7.96554 25.7553 7.92978 25.7553 7.92978C25.7553 7.92978 25.7829 7.90198 25.8084 7.87842C25.8566 7.84055 26.028 7.76683 26.1385 7.73968C26.2781 7.70967 26.4282 7.65825 26.5798 7.61612C27.6275 7.32313 29.7045 7.2746 30.6559 7.30889C34.3501 7.44753 37.7885 8.27929 41.2688 9.72208C44.6762 11.1356 44.9214 11.7575 47.1818 14.691C48.0362 15.8008 49.1079 17.6217 49.2375 19.1596C49.3558 20.5645 48.9103 21.9093 48.0588 22.8947C47.4142 23.6372 46.562 24.1854 45.6333 24.6263C43.5174 25.636 40.9437 25.8432 38.6379 25.7817C38.3355 25.7739 37.1963 25.6703 36.9264 25.6303C36.4582 25.5531 35.8631 25.438 35.8631 25.438L35.7115 18.2405C35.7115 18.2405 36.4299 18.2663 36.9357 18.2963C38.2292 18.3735 40.9026 18.82 42.2415 19.3559C42.5277 19.4689 42.826 19.6455 42.8529 19.9313C42.872 20.15 42.6998 20.3372 42.5071 20.5094C42.4178 20.5923 42.3215 20.6601 42.206 20.7237C41.9744 20.8481 41.5842 21.0546 41.5566 21.0903C41.4829 21.1882 41.4772 21.3326 41.5793 21.4141C41.8364 21.6149 42.673 21.7277 42.8961 21.7127C43.6435 21.6705 44.3808 21.1604 44.7697 20.4715C45.1161 19.862 45.1509 19.3959 44.9228 18.7206C44.6785 17.9839 43.9233 17.2872 43.115 16.8748C42.1346 16.3725 40.4246 15.9959 39.5469 15.8558C38.8612 15.7458 38.1336 15.64 37.474 15.6236C36.794 15.6057 35.6896 15.638 35.6896 15.638C35.6896 15.638 35.6684 14.661 35.6252 14.0122C35.5537 12.946 35.2618 10.8508 34.2991 10.2484C34.1234 10.1376 33.9073 10.1261 33.7862 10.2919C33.5992 10.537 33.4165 11.4739 33.374 11.719C33.2954 12.1685 33.0502 14.2959 33.0573 14.6203C33.0636 14.9491 33.031 15.8509 33.0119 15.8788C33.0013 15.8924 32.99 15.9024 32.9745 15.9138C32.9369 15.9395 32.3219 16.0495 31.9259 16.1066C31.0858 16.2295 29.0662 16.895 28.4152 17.1844C27.5298 17.5753 26.237 18.262 25.8757 19.1717C25.6151 19.8241 25.7134 20.3722 26.057 20.9882C26.499 21.7771 27.0792 22.393 27.7245 23.0083C27.9555 23.2284 28.9982 24.1102 29.2405 24.291C30.1153 24.9456 31.1177 25.5789 32.1718 26.1034C32.5153 26.2763 32.9262 26.4721 32.9262 26.4721C32.9262 26.4721 33.0077 27.306 33.0856 27.7862C33.1805 28.3822 33.3789 28.9025 33.9286 29.1376C34.2644 29.2805 34.649 29.2598 35.0117 29.1897C35.3114 29.1326 35.5176 28.9974 35.6444 28.7352C35.6919 28.6373 35.7783 28.3344 35.7917 28.2215C35.8205 27.9692 35.8185 27.6119 35.8185 27.6119C35.8185 27.6119 36.7041 27.8162 37.2992 27.927C39.0312 28.2492 40.9083 28.2799 42.5412 28.0806C44.9497 27.784 47.7563 26.8837 49.5684 25.303C50.0572 24.8778 50.8774 23.8838 51.2231 23.2563C51.4257 22.8912 51.615 22.5217 51.8083 22.0751C51.8466 21.9844 52.086 21.2475 52.1313 20.9281C52.1547 20.7895 52.2979 19.7376 52.2369 19.1816C52.2469 18.9465 52.1178 18.342 52.1036 18.2327C52.0937 18.222 52.0258 17.9254 51.9798 17.7239C51.933 17.5195 51.6504 16.8134 51.5845 16.6962C51.3946 16.3525 51.2785 16.0602 51.1318 15.7615C50.5141 14.5224 49.2453 12.9603 48.2252 11.9406C47.6996 11.4125 46.9708 10.7528 46.414 10.294C46.1476 10.0704 44.4297 8.79772 44.1364 8.60263C43.2056 7.98735 42.3039 7.79326 43.2156 8.05844C41.7513 7.34598 40.6597 6.82866 39.131 6.36345C36.6273 5.59503 34.1777 5.12105 31.609 5.1502ZM32.9256 18.3578C32.9256 18.3578 32.9013 19.4217 32.8972 20.4993C32.8865 22.5381 32.9404 24.6083 32.9404 24.6083C32.9404 24.6083 32.2193 24.3483 31.7858 24.1661C30.5156 23.6301 28.7943 22.5259 27.9449 21.812C27.743 21.6413 27.0204 20.9403 26.8929 20.7895C26.6712 20.5272 26.4742 20.2764 26.5281 19.952C26.5812 19.6419 27.1912 19.3838 27.4923 19.2781C28.4911 18.9158 30.2244 18.6135 31.1474 18.5141C31.8714 18.4327 32.9256 18.3578 32.9256 18.3578Z" fill="#1A1A1A"/>
<path d="M57.3874 5.61425C56.5576 5.60375 55.6786 5.825 55.0134 6.10897C53.9883 6.54559 53.0469 7.18867 52.3271 7.96259C51.6117 8.72864 51.0606 9.69773 51.1194 10.7511C51.1357 11.0884 51.2709 11.6107 51.4381 11.913C51.5798 12.1681 51.8448 12.4411 51.9036 12.7069C51.9368 12.867 51.9064 13.0721 51.9135 13.2601C51.9269 13.6888 52.1111 14.1312 52.4299 14.4141C52.6594 14.6164 52.8585 14.6085 53.0944 14.4335C53.161 14.3863 53.263 14.2662 53.3175 14.1733C53.421 13.9982 53.5194 13.7552 53.6122 13.6573C53.6264 13.6437 53.6923 13.6795 53.744 13.7174C53.7851 13.7488 54.1754 13.848 54.281 13.8573C54.4892 13.8731 54.7109 13.9296 54.9248 13.9475C55.6162 14.0104 56.5647 13.7867 57.1725 13.5466C58.5595 12.9978 59.6299 12.2124 60.7144 11.0926C61.347 10.4438 61.9024 9.37545 61.6984 8.40288C61.5971 7.91909 61.3761 7.58536 60.9773 7.23592C60.7782 7.0637 60.2895 6.80496 59.9495 6.74564C59.851 6.7278 59.727 6.71556 59.681 6.68555C59.6278 6.65197 59.5853 6.58051 59.5342 6.51477C59.292 6.20534 58.8089 5.90815 58.464 5.7881C58.1317 5.67175 57.7646 5.61902 57.3874 5.61425ZM55.6169 7.89114C55.6169 7.89114 55.3923 8.07908 55.1997 8.24344C54.5749 8.78368 53.7439 9.65555 53.2842 10.2844C53.032 10.6303 52.7317 11.0848 52.7317 11.0848C52.7317 11.0848 52.6672 10.9496 52.6247 10.8467C52.3406 10.1321 52.9711 9.32603 53.5449 8.83152C53.8935 8.52996 54.5897 8.0634 55.0644 7.96979C55.2634 7.92834 55.6169 7.89114 55.6169 7.89114ZM59.3055 8.09519C59.4492 8.09109 59.5811 8.12242 59.7546 8.19852C60.021 8.31358 60.2306 8.55932 60.2682 8.88303C60.3843 9.88777 59.2445 10.741 58.4688 11.1783C57.679 11.6192 56.8289 11.8843 55.9222 11.9458V11.9459C55.5673 11.9717 54.6322 11.9816 54.6053 11.8794C54.5982 11.8544 54.6585 11.7622 54.7393 11.6643C54.8632 11.5042 55.0233 11.2691 55.182 11.0604C55.867 10.1693 57.1272 9.05378 58.0183 8.53212C58.3208 8.35704 58.4646 8.29996 58.7848 8.2042C59.0062 8.13881 59.1618 8.09931 59.3055 8.09519ZM54.7957 15.8097C54.5258 15.8075 54.3672 16.1916 54.2915 16.3899C54.0513 17.0117 53.8771 18.4966 53.8311 18.9575C53.6879 20.361 53.5725 23.6861 53.814 25.3804C53.9146 26.09 54.1464 26.5517 54.8583 26.7004C55.1466 26.7604 55.6715 26.7489 55.9031 26.6003C56.105 26.4723 56.2452 26.2279 56.2926 26.0157C56.4216 25.4247 56.372 24.5873 56.3458 23.9577C56.3146 23.2153 56.2962 22.4727 56.2622 21.7224C56.2169 20.7184 56.0979 18.1593 55.8202 17.0016C55.7005 16.5043 55.5007 16.0498 55.0147 15.8626C54.9588 15.8426 54.8929 15.8233 54.8511 15.8155C54.8321 15.8118 54.8137 15.8098 54.7957 15.8097Z" fill="#1A1A1A"/>
<path d="M64.1851 15.6823C63.5685 15.686 62.9865 15.7279 62.4984 15.7893C60.8839 15.9909 58.7261 16.4976 57.8038 17.8354C57.4525 18.347 57.2449 19.1317 57.4064 19.7705C57.4985 20.1243 57.806 20.4443 58.1184 20.5872C58.4322 20.7294 58.8246 20.8016 59.1852 20.853C59.5366 20.9045 60.9966 21.0288 61.9245 21.1089C62.8107 21.1825 64.5279 21.3726 65.4573 21.7635C65.536 21.7971 65.9361 21.9708 66.0352 22.093C66.0799 22.1508 66.1331 22.2386 66.1649 22.2479C66.1749 22.2503 66.1884 22.2438 66.2011 22.2495C66.2875 22.2774 66.3328 22.5476 66.3328 22.5797C66.33 22.8305 66.1459 23.0306 65.9553 23.1656C64.5747 24.1518 62.6797 24.4312 60.9944 24.4054C60.4221 24.3961 59.9503 24.3068 59.3701 24.0531C59.1229 23.9452 58.7984 23.6851 58.8466 23.4057C58.9394 22.8633 59.5323 22.7268 60.0225 22.7739C60.2973 22.7997 60.6552 22.917 60.9237 23.0228C62.0054 23.4537 62.4984 23.8159 63.4511 23.6694C63.806 23.6158 65.0351 23.3464 65.2022 22.8354C65.2433 22.7089 65.1832 22.5753 65.0925 22.481C64.9636 22.3495 64.2233 22.058 64.0214 21.9844C63.2954 21.7257 61.9225 21.4862 61.1588 21.4577C60.1565 21.4219 58.8282 21.6106 58.2084 22.4667C57.8181 23.0041 57.8081 23.7394 58.1283 24.3068C58.564 25.0793 59.4269 25.6781 60.1331 26.0262C61.3275 26.6093 62.7625 26.8851 64.0872 26.7386C64.8466 26.6514 65.5062 26.4956 66.1798 26.1669C66.8259 25.8525 67.5343 25.2601 67.858 24.5547C68.2901 23.6057 68.2583 22.3531 67.7801 21.4577C67.4663 20.8667 67.1207 20.5366 66.5334 20.2737C65.9008 19.9878 65.0733 19.8348 64.2289 19.719C64.1814 19.7119 64.1687 19.7097 64.117 19.7048L60.2244 19.2395C60.1727 19.2345 60.162 19.2323 60.1124 19.2223C59.9431 19.1851 59.1555 19.0995 59.431 18.798C59.5096 18.7093 59.7477 18.6471 59.8858 18.6071C61.6461 18.1219 63.8811 18.1769 65.7307 18.0719C66.143 18.0462 67.083 17.9897 67.5364 17.8439C67.9678 17.7082 68.3276 17.3995 68.4268 16.92C68.4778 16.6641 68.3559 16.5448 68.1186 16.4176C67.0642 15.8521 65.5414 15.6743 64.1851 15.6823Z" fill="#1A1A1A"/>
<path d="M74.8561 14.1007C74.5905 14.0877 74.4333 14.2808 74.4319 14.5839C74.4298 14.8418 74.49 15.1156 74.5544 15.3864C74.7563 16.2204 75.0262 17.1187 75.2473 17.9805C75.4477 18.7509 75.7035 19.8899 75.8026 20.6995C75.8388 20.9782 75.858 21.2398 75.8997 21.5628C75.9245 21.7658 75.9599 22.7775 75.9414 22.8061C75.9018 22.8797 75.8139 22.8755 75.7162 22.7962C75.6439 22.7361 75.5816 22.6418 75.5157 22.5446C74.9774 21.7421 74.4297 20.8553 73.8595 19.9749C73.3494 19.1895 72.5801 18.0612 71.995 17.2287C71.7662 16.9028 71.475 16.5856 71.067 16.5491C70.4741 16.4998 70.2 17.373 70.0095 17.9075C69.3429 19.7848 68.8179 22.5718 68.9362 24.5748C68.9709 25.1901 69.1402 26.4064 69.8868 26.6829H69.8869C70.1781 26.7915 70.3608 26.8373 70.6009 26.728C70.9388 26.5722 71.0281 26.2678 71.116 25.8969C71.2506 25.3288 71.2732 24.1753 71.2903 23.7051C71.2917 23.6272 71.3618 20.8332 71.4638 20.2358C71.4793 20.1536 71.5034 20.0271 71.5636 20.0449C71.6429 20.0692 71.6883 20.1178 71.723 20.1685C71.8816 20.3986 72.9068 22.4503 73.5025 23.4994C73.6775 23.8059 74.7038 25.5996 75.3286 25.9569C75.8996 26.2856 76.7285 25.982 77.1443 25.5932C77.4092 25.3452 77.7279 24.8528 77.8831 24.487C78.306 23.4922 78.3762 22.0222 78.2926 21.0132C78.2055 19.9749 78.0149 19.0717 77.6997 18.1191C77.6111 17.8411 77.2158 16.8492 77.116 16.6541C76.8227 16.0767 75.816 14.4139 75.0567 14.1437C74.9844 14.1176 74.9174 14.1036 74.8561 14.1007Z" fill="#1A1A1A"/>
<path d="M85.9923 15.3832C85.2943 15.3944 83.6256 15.5895 83.2431 15.6364C82.7741 15.695 82.3101 15.7573 81.8171 15.8302C81.4218 15.8867 80.1708 16.1289 80.0121 16.1804C79.58 16.3154 79.4426 16.5469 79.6515 16.9642C79.8258 17.3208 80.1168 17.5102 80.5022 17.6567C80.8472 17.7882 81.4918 17.9383 81.4918 17.9383C81.4918 17.9383 81.2496 18.6136 81.0944 19.0567C80.9832 19.3718 80.8529 19.7648 80.6495 19.8148C80.6155 19.8247 80.5809 19.8243 80.5342 19.8284C80.0241 19.8827 79.7195 20.1635 79.733 20.5594C79.7443 20.8188 79.937 21.6264 79.9235 21.7464C79.9165 21.7993 79.9065 21.8407 79.8859 21.8885C79.5615 22.7647 79.4425 22.7925 79.3172 23.4306C79.1819 24.1145 79.1755 24.7412 79.4199 25.3779C79.4539 25.468 79.4893 25.546 79.536 25.6539C79.5892 25.7789 79.8577 26.1848 79.8725 26.1998C79.9675 26.3077 80.0977 26.4421 80.1785 26.5043C80.2465 26.5579 80.447 26.6923 80.447 26.6923C80.4434 26.7109 80.8133 26.8853 80.9153 26.9117C81.4501 27.0527 81.5988 27.121 82.2095 27.0517C83.5313 26.9031 85.3052 26.0355 86.343 25.2352C86.671 24.9822 86.9394 24.7472 86.9246 24.392C86.9076 24.0147 86.7828 23.7532 86.5427 23.4409C86.265 23.0879 85.9994 23.1257 85.4716 23.2108C84.4898 23.3666 83.2933 23.5452 82.4886 23.6938C82.3413 23.7196 82.1528 23.7468 81.9672 23.7453C81.8559 23.7453 81.7221 23.7395 81.7221 23.7395C81.7221 23.7395 81.8653 23.2014 82.0325 22.6733C82.1982 22.1666 82.3888 21.665 82.3888 21.665C82.3888 21.665 82.6247 21.6293 82.8478 21.605C83.2055 21.5629 85.8434 21.5471 86.0786 21.5092C86.5334 21.4321 86.6412 21.1669 86.6171 20.5909C86.5994 20.0986 86.4471 19.757 86.0065 19.6584C85.8889 19.6333 85.6792 19.622 85.4695 19.622C84.6067 19.6256 83.0709 19.642 83.0709 19.642L83.5073 18.1705C83.5073 18.1705 84.3722 18.1811 84.9977 18.1747C85.3908 18.1704 87.5344 18.1397 88.1961 17.7345C88.6268 17.468 88.4319 16.9763 88.1464 16.5625C87.6159 15.7872 87.0265 15.4098 86.1183 15.3834C86.0811 15.3825 86.0389 15.3824 85.9923 15.3832Z" fill="#1A1A1A"/>
<path d="M92.3897 15.7865C92.0631 15.7694 91.3443 16.6384 91.2337 16.777C89.7688 18.5993 88.4623 20.8681 88.4597 23.1613C88.4597 23.8859 88.646 24.7828 88.9916 25.5252C89.0142 25.5696 89.0142 25.581 88.9957 25.631C87.8871 28.5566 88.2686 27.6271 87.8698 30.5662C87.7564 31.4066 87.6175 32.8388 88.1984 33.5998C88.4874 33.985 88.8261 34.1936 89.2114 34.3979C89.5083 34.558 89.6067 34.606 89.8518 34.461C89.9523 34.3959 89.98 34.3701 90.0218 34.2886C90.0522 34.2286 90.6473 31.4195 90.8563 30.3476C90.9951 29.6251 90.8106 29.5227 91.0834 28.6594C91.2413 28.1592 91.4567 27.5217 91.4567 27.5217C91.4567 27.5217 91.6672 27.5325 91.8479 27.5366C93.1839 27.5681 94.546 27.04 95.7071 26.2639C96.8426 25.505 97.6779 24.6375 98.2892 23.4327C98.8049 22.4229 99.0436 21.0966 98.9295 19.9175C98.8318 18.9306 98.4535 17.7136 97.585 17.1384C97.0374 16.7734 96.5331 16.8463 95.9713 17.1393C95.2629 17.5101 94.9724 17.7724 94.3172 18.4034C94.0055 18.7028 92.9225 19.8383 92.6413 20.1584C92.3636 20.4736 92.124 20.7659 91.7911 21.2083C91.1812 22.0136 90.2575 23.3185 90.2575 23.3185C90.2575 23.3185 90.2044 23.0083 90.1931 22.7625C90.1882 22.6767 90.2993 22.0078 90.3439 21.8649C90.6216 20.9495 90.7449 20.5386 91.313 19.5403C91.8181 18.6471 92.5568 17.568 92.7212 16.509C92.7701 16.1874 92.717 15.8022 92.3897 15.7865ZM97.0086 19.0521C97.0934 19.052 97.1727 19.0972 97.213 19.1494C97.5417 19.586 97.483 20.5673 97.3675 21.0354C97.1068 22.0651 96.5549 22.9455 95.7622 23.5865C95.2423 24.0053 94.2683 24.5126 93.5521 24.6341C93.2156 24.6912 92.8884 24.7041 92.8657 24.6634C92.8543 24.6441 93.1795 24.0688 93.2879 23.908C93.7922 23.1927 94.3193 22.2695 94.8796 21.4634C95.299 20.8553 96.1774 19.6839 96.8575 19.1094C96.905 19.0684 96.9577 19.0521 97.0086 19.0521Z" fill="#1A1A1A"/>
</svg>
