<svg width="101" height="40" viewBox="0 0 101 40" fill="none" xmlns="http://www.w3.org/2000/svg">
<g clip-path="url(#clip0_513_1068)">
<path d="M4.43264 26.8272H0.535934V13.2266H7.27521L15.0066 23.3803V13.2266H18.9033V26.8272H12.3005L4.43264 16.5003V26.8272ZM37.5475 22.6219C37.5475 24.5124 37.222 25.1639 36.6824 25.7894C35.8555 26.7203 34.6532 27 32.3353 27H25.6821C23.3641 27 22.1603 26.72 21.3342 25.7894C20.7956 25.1644 20.4693 24.5124 20.4693 22.6219V17.3789C20.4693 15.4887 20.7956 14.8374 21.3342 14.2114C22.1603 13.2797 23.3644 13 25.6821 13H32.3355C34.6532 13 35.8558 13.28 36.6824 14.2114C37.2217 14.8372 37.5475 15.4884 37.5475 17.3789V22.6219ZM32.1716 23.5536C33.0616 23.5536 33.3754 23.5003 33.5885 23.301C33.7886 23.1147 33.8768 22.875 33.8768 22.076V17.9243C33.8768 17.1255 33.7886 16.8872 33.5885 16.7001C33.3754 16.5003 33.0616 16.4475 32.1716 16.4475H25.8452C24.9553 16.4475 24.6417 16.5003 24.4291 16.7001C24.2285 16.8872 24.1408 17.1257 24.1408 17.9243V22.076C24.1408 22.8748 24.2282 23.1147 24.4291 23.301C24.6417 23.5003 24.9553 23.5536 25.8452 23.5536H32.1716ZM43.2104 13.2266V26.8272H39.1389V13.2266H43.2104ZM50.0893 13.2266H55.4644L48.2101 19.5884L56.3921 26.8272H50.6403L43.2104 19.7341L50.0893 13.2266ZM57.1432 13.2266H61.216V26.8272H57.1432V13.2266ZM76.7408 26.8272L75.5359 24.458H67.6566L66.4663 26.8272H61.9679L69.1855 13.2264H74.2467L81.4641 26.8272H76.7408ZM69.0715 21.5039H74.1345L71.6025 16.5799L69.0715 21.5039Z" fill="#1A1A1A"/>
</g>
<defs>
<clipPath id="clip0_513_1068">
<rect width="81" height="14" fill="white" transform="translate(0.5 13)"/>
</clipPath>
</defs>
</svg>
