<svg width="120" height="40" viewBox="0 0 120 40" fill="none" xmlns="http://www.w3.org/2000/svg">
<g clip-path="url(#clip0_1_139)">
<path d="M28.3936 15.0289C24.5429 15.0289 21.5341 17.8051 21.5341 21.5216C21.5341 25.2382 24.4668 27.9906 28.3936 27.9906C32.3203 27.9906 35.3041 25.1907 35.3041 21.4979C35.3041 17.8289 32.3713 15.0289 28.3936 15.0289ZM28.4196 25.3122C26.2267 25.3122 24.6198 23.6947 24.6198 21.5226C24.6198 19.3257 26.2007 17.7091 28.3936 17.7091C30.6124 17.7091 32.2183 19.3504 32.2183 21.5226C32.2183 23.6947 30.6124 25.3122 28.4196 25.3122ZM36.1451 17.8535H38.0579V27.7503H41.1178V15.2701H36.1451V17.8535ZM13.8336 17.7082C15.4404 17.7082 16.7154 18.6495 17.1993 20.0495H20.4381C19.8512 17.0567 17.2503 15.0289 13.8595 15.0289C10.0088 15.0289 7 17.8051 7 21.5226C7 25.24 9.93279 27.9916 13.8595 27.9916C17.1743 27.9916 19.8261 25.9638 20.4131 22.9463H17.1993C16.7404 24.3463 15.4655 25.3122 13.8586 25.3122C11.6397 25.3122 10.0848 23.6947 10.0848 21.5226C10.0858 19.3257 11.6157 17.7082 13.8336 17.7082ZM94.2832 20.3154L92.0394 20.0019C90.9685 19.8576 90.2035 19.5194 90.2035 18.7226C90.2035 17.8535 91.1984 17.4195 92.5494 17.4195C94.0283 17.4195 94.9722 18.0226 95.1762 19.0123H98.134C97.802 16.502 95.7622 15.0298 92.6263 15.0298C89.3876 15.0298 87.2457 16.5988 87.2457 18.8194C87.2457 20.9432 88.6486 22.175 91.4784 22.5607L93.7223 22.8741C94.8192 23.0185 95.4312 23.4297 95.4312 24.2019C95.4312 25.1916 94.3602 25.6019 92.8813 25.6019C91.0705 25.6019 90.0505 24.9019 89.8975 23.84H86.8887C87.1697 26.2781 89.1836 27.9916 92.8553 27.9916C96.1961 27.9916 98.414 26.5431 98.414 24.0566C98.414 21.836 96.8081 20.6773 94.2832 20.3154ZM39.5878 10.1289C38.4659 10.1289 37.624 10.9011 37.624 11.963C37.624 13.0249 38.465 13.797 39.5878 13.797C40.7098 13.797 41.5517 13.0249 41.5517 11.963C41.5517 10.9011 40.7098 10.1289 39.5878 10.1289ZM84.4919 19.5432C84.4919 16.8401 82.758 15.0298 79.0862 15.0298C75.6185 15.0298 73.6806 16.6957 73.2976 19.2544H76.3324C76.4854 18.2648 77.3014 17.4441 79.0352 17.4441C80.5911 17.4441 81.3561 18.0957 81.3561 18.8926C81.3561 19.9307 79.9532 20.1957 78.2193 20.3647C75.8734 20.606 72.9666 21.3782 72.9666 24.275C72.9666 26.5203 74.7265 27.9678 77.5313 27.9678C79.7242 27.9678 81.1011 27.0987 81.79 25.7225C81.892 26.9534 82.861 27.7503 84.2128 27.7503H85.9977V25.1678H84.4928V19.5432H84.4919ZM81.4831 22.6813C81.4831 24.3472 79.9532 25.5781 78.0913 25.5781C76.9434 25.5781 75.9745 25.1194 75.9745 24.1544C75.9745 22.9235 77.5303 22.5853 78.9583 22.441C80.3352 22.3203 81.1001 22.0306 81.4831 21.475V22.6813ZM65.2402 15.0289C63.5313 15.0289 62.1034 15.7051 61.0834 16.8392V10.0083H58.0236V27.7503H61.0324V26.1091C62.0524 27.2916 63.5063 27.9916 65.2402 27.9916C68.9119 27.9916 71.6917 25.24 71.6917 21.5226C71.6917 17.8051 68.8609 15.0289 65.2402 15.0289ZM64.7812 25.3122C62.5883 25.3122 60.9814 23.6947 60.9814 21.5226C60.9814 19.3504 62.6133 17.7091 64.8062 17.7091C67.025 17.7091 68.58 19.3266 68.58 21.5226C68.58 23.6947 66.974 25.3122 64.7812 25.3122ZM50.7051 15.0289C48.7163 15.0289 47.4154 15.8011 46.6504 16.8876V15.2701H43.6156V27.7494H46.6754V20.9669C46.6754 19.0598 47.9503 17.7082 49.8372 17.7082C51.5971 17.7082 52.693 18.8907 52.693 20.6051V27.7503H55.7528V20.3885C55.7538 17.2495 54.0459 15.0289 50.7051 15.0289ZM113 21.1122C113 17.5401 110.246 15.0298 106.548 15.0298C102.622 15.0298 99.7399 17.8298 99.7399 21.5226C99.7399 25.4091 102.826 27.9916 106.599 27.9916C109.787 27.9916 112.286 26.205 112.923 23.671H109.735C109.276 24.7813 108.154 25.4091 106.649 25.4091C104.686 25.4091 103.207 24.2503 102.876 22.2226H112.999V21.1122H113ZM103.055 20.1463C103.54 18.4082 104.917 17.5638 106.497 17.5638C108.231 17.5638 109.557 18.5051 109.863 20.1463H103.055Z" fill="#1A1A1A"/>
</g>
<defs>
<clipPath id="clip0_1_139">
<rect width="106" height="18" fill="white" transform="translate(7 11)"/>
</clipPath>
</defs>
</svg>
