<svg width="120" height="40" viewBox="0 0 120 40" fill="none" xmlns="http://www.w3.org/2000/svg">
<g clip-path="url(#clip0_1_115)">
<path fill-rule="evenodd" clip-rule="evenodd" d="M47.8083 14.348C44.1262 14.348 41.4862 17.2266 41.4862 20.5859C41.4862 23.9922 44.0463 26.9249 47.8516 26.9249C51.2975 26.9249 54.1196 24.2927 54.1196 20.6509C54.1196 16.4814 50.836 14.342 47.8095 14.342L47.8083 14.348ZM61.5571 14.348C57.8792 14.348 55.241 17.2266 55.241 20.5859C55.241 23.9922 57.8011 26.9249 61.607 26.9249C65.0445 26.9249 67.869 24.2927 67.869 20.6509C67.869 16.4814 64.5878 14.342 61.5589 14.342L61.5625 14.348H61.5571ZM82.9093 26.5583H85.6797V8.01865H82.9093V26.5583ZM75.2885 16.8209C76.9471 16.8209 78.6479 18.238 78.6479 20.6539C78.6479 23.1178 76.9495 24.4639 75.2512 24.4639C73.4483 24.4639 71.7735 23.0096 71.7735 20.6779C71.7735 18.262 73.5162 16.8197 75.2891 16.8197L75.2885 16.8209ZM47.8456 16.8209C49.6569 16.8209 51.3732 18.2861 51.3732 20.6418C51.3732 22.9615 49.6641 24.4639 47.8372 24.4639C45.836 24.4639 44.2494 22.8612 44.2494 20.6298C44.2494 18.4543 45.8119 16.8299 47.8492 16.8299V16.8203L47.8456 16.8209ZM61.5944 16.8209C63.4051 16.8209 65.122 18.2861 65.122 20.6418C65.122 22.9615 63.4123 24.4639 61.586 24.4639C59.5788 24.4639 57.9922 22.8612 57.9922 20.6298C57.9922 18.4543 59.5547 16.8299 61.586 16.8299L61.592 16.8203L61.5944 16.8209ZM92.7927 14.345C89.6058 14.345 86.9273 16.881 86.9273 20.6298C86.9273 24.5932 89.9117 26.9399 93.1004 26.9399C95.7506 26.9399 97.3852 25.4856 98.3588 24.1815L96.1833 22.735C95.6184 23.6124 94.6689 24.4658 93.0944 24.4658C91.3275 24.4658 90.5144 23.4982 90.0114 22.5607L98.4615 19.0505L98.024 18.0253C97.2091 16.018 95.3077 14.3396 92.7939 14.3396L92.7879 14.3456L92.7927 14.345ZM40.4586 16.2801H31.4802V18.9471H37.8468C37.5343 22.6851 34.4255 24.2777 31.4928 24.2777C27.741 24.2777 24.4658 21.3245 24.4658 17.1863C24.4658 13.1557 27.5788 10.0517 31.497 10.0517C34.5139 10.0517 36.2927 11.979 36.2927 11.979L38.1557 10.0481C38.1557 10.0481 35.7633 7.37983 31.3943 7.37983C25.8402 7.37502 21.5385 12.0673 21.5385 17.1334C21.5385 22.0974 25.583 26.9411 31.5373 26.9411C36.7777 26.9411 40.6118 23.3534 40.6118 18.0469C40.6118 16.9291 40.4478 16.2801 40.4478 16.2801H40.4586ZM92.9044 16.7608C94.0547 16.7608 94.8816 17.3726 95.2326 18.1058L89.6016 20.4615C89.3582 18.643 91.0847 16.7686 92.9057 16.7686L92.9044 16.7608ZM75.0457 14.357C71.6653 14.357 69.0078 17.3245 69.0078 20.6418C69.0078 24.4279 72.0848 26.9399 74.9874 26.9399C76.7783 26.9399 77.7278 26.2308 78.4369 25.4135V26.6515C78.4369 28.8257 77.1148 30.1238 75.1316 30.1238C73.2086 30.1238 72.247 28.6935 71.9105 27.8852L69.4952 28.8942C70.3528 30.7091 72.0793 32.601 75.1515 32.601C78.512 32.601 81.0739 30.4832 81.0739 26.0445V14.7404H78.4375V15.8059C77.6262 14.9405 76.518 14.3636 75.0457 14.3636V14.3576V14.357Z" fill="#1A1A1A"/>
</g>
<defs>
<clipPath id="clip0_1_115">
<rect width="76.923" height="25.2404" fill="white" transform="translate(21.5385 7.37982)"/>
</clipPath>
</defs>
</svg>
