<svg width="120" height="40" viewBox="0 0 120 40" fill="none" xmlns="http://www.w3.org/2000/svg">
<path d="M3.59296 26.9188C3.18103 26.9197 2.77624 26.8112 2.41995 26.6045C2.06366 26.3977 1.76864 26.1001 1.56502 25.742C1.36453 25.3865 1.26453 24.9831 1.27575 24.575C1.28697 24.167 1.40899 23.7697 1.62873 23.4257L5.80493 16.8676C6.01868 16.5151 6.32215 16.2257 6.68434 16.0289C7.04653 15.8321 7.45447 15.735 7.86649 15.7475C8.27819 15.7573 8.67988 15.8764 9.03046 16.0925C9.38103 16.3086 9.66789 16.6139 9.86169 16.9773C10.251 17.7135 10.2023 18.5991 9.73605 19.2902L5.5625 25.8482C5.35086 26.178 5.05938 26.449 4.71509 26.6362C4.37079 26.8233 3.98483 26.9206 3.59296 26.9188Z" fill="#1A1A1A"/>
<path d="M10.2063 26.919C9.36398 26.919 8.5889 26.4686 8.1819 25.7449C7.98185 25.3903 7.88209 24.9879 7.89331 24.581C7.90453 24.174 8.02632 23.7777 8.2456 23.4347L12.4138 16.8917C12.6244 16.5343 12.9268 16.2397 13.2896 16.0386C13.6524 15.8374 14.0625 15.737 14.4772 15.7477C15.3266 15.7662 16.0963 16.2414 16.4856 16.9846C16.8723 17.7278 16.8157 18.6188 16.3352 19.3081L12.1679 25.8511C11.9569 26.1795 11.6666 26.4494 11.3238 26.6361C10.9809 26.8227 10.5966 26.92 10.2063 26.919Z" fill="#1A1A1A"/>
<path d="M16.2096 26.9738C17.397 26.9738 18.3596 26.0314 18.3596 24.8689C18.3596 23.7064 17.397 22.764 16.2096 22.764C15.0222 22.764 14.0596 23.7064 14.0596 24.8689C14.0596 26.0314 15.0222 26.9738 16.2096 26.9738Z" fill="#1A1A1A"/>
<path d="M116.651 23.0089C117.353 23.0089 117.772 23.5078 117.772 24.325V27.1253H118.725V24.2609C118.725 22.8713 118.07 22.0656 116.839 22.0656C116.358 22.0656 115.593 22.1975 115.137 23.0835C115.031 22.8221 114.857 22.5944 114.632 22.4244C114.407 22.2545 114.14 22.1486 113.859 22.1182C113.683 22.0858 113.503 22.0753 113.324 22.0866C112.932 22.1182 112.235 22.3619 111.974 22.9143V22.1717H111.02V27.1253H111.974V24.4521C111.974 23.4122 112.654 23.0089 113.336 23.0089C113.974 23.0089 114.394 23.4973 114.394 24.3144V27.1253H115.342V24.4521C115.342 23.6244 115.839 22.9993 116.651 23.0089ZM107.519 26.2976C107.955 26.3071 108.375 26.1332 108.68 25.8178C108.986 25.5024 109.149 25.0733 109.132 24.6327C109.132 23.6349 108.398 23.0089 107.519 23.0089C106.639 23.0089 105.906 23.6349 105.906 24.6327C105.889 25.0723 106.051 25.5005 106.355 25.8149C106.659 26.1303 107.078 26.3052 107.511 26.2976H107.519ZM107.519 27.2266C106.126 27.2266 104.962 26.1972 104.962 24.627C104.962 23.0567 106.126 22.0599 107.519 22.0599C108.913 22.0599 110.085 23.0567 110.085 24.627C110.085 26.1972 108.906 27.2313 107.512 27.2313L107.519 27.2266ZM100.055 24.627L100.045 24.6327C100.045 23.0624 101.239 22.0656 102.642 22.0599C102.994 22.053 103.344 22.1203 103.669 22.2573C103.994 22.3942 104.286 22.5979 104.528 22.855L103.805 23.4705C103.652 23.3198 103.47 23.201 103.27 23.121C103.071 23.0409 102.857 23.0012 102.642 23.0041C101.763 23.0041 100.998 23.6301 100.998 24.627C100.998 25.3008 101.399 25.9077 102.013 26.1657C102.628 26.4237 103.335 26.2804 103.805 25.8044L104.538 26.4199C104.296 26.6797 104.002 26.8858 103.676 27.0247C103.349 27.1637 102.997 27.2324 102.642 27.2266C101.249 27.2266 100.055 26.1972 100.055 24.627ZM97.0031 26.1743C97.0021 26.0877 97.0181 26.0017 97.0504 25.9213C97.0826 25.841 97.1303 25.7677 97.1908 25.7057C97.2514 25.6438 97.3235 25.5944 97.4031 25.5603C97.4827 25.5262 97.5683 25.5082 97.6549 25.5072C97.7415 25.5082 97.8271 25.5262 97.9067 25.5603C97.9863 25.5944 98.0585 25.6438 98.119 25.7057C98.1795 25.7677 98.2273 25.841 98.2595 25.9213C98.2917 26.0017 98.3077 26.0877 98.3067 26.1743C98.2982 26.342 98.226 26.5002 98.1049 26.6165C97.9838 26.7328 97.8228 26.7986 97.6549 26.8003C97.487 26.7986 97.326 26.7328 97.2049 26.6165C97.0838 26.5002 97.0116 26.342 97.0031 26.1743Z" fill="#1A1A1A"/>
<path fill-rule="evenodd" clip-rule="evenodd" d="M98.8897 15.8743H95.4958L93.117 22.0073L90.7506 15.8743H87.3568L91.4827 25.5655L89.4774 30.3511H92.8464L98.8897 15.8743ZM78.2496 21.2647C78.2496 22.813 79.6029 23.8318 80.9323 23.8318C82.2388 23.8318 83.5224 22.8837 83.5224 21.2637C83.5224 19.6438 82.2388 18.6947 80.9323 18.6947C79.6029 18.6947 78.2496 19.7154 78.2496 21.2647ZM83.5224 26.6761V25.4499C82.8343 26.4916 81.2286 26.8854 80.4048 26.8854C77.6771 26.8854 74.9485 24.735 74.9485 21.2637C74.9485 17.7935 77.6762 15.6431 80.4048 15.6431C81.0919 15.6431 82.6976 15.8724 83.5224 17.0767V15.8782H86.6859V26.678L83.5224 26.6761ZM74.0482 26.6761H70.8847V25.3342C70.3562 26.3282 69.0745 26.9074 67.7441 26.9074C64.9926 26.9074 62.5621 24.7101 62.5621 21.3077C62.5621 17.8412 64.9926 15.6411 67.7441 15.6411C69.0726 15.6411 70.3581 16.1955 70.8847 17.1904V10.7115H74.0482V26.6761ZM70.8159 21.2398C70.8159 19.6208 69.647 18.6718 68.3405 18.6718C66.9872 18.6718 65.8633 19.6896 65.8633 21.2398C65.8633 22.8397 66.9872 23.8528 68.3396 23.8528C69.6709 23.8547 70.8159 22.79 70.8159 21.2398ZM54.7404 20.9608C54.7404 19.3188 55.5891 18.7635 56.7121 18.7635C57.7892 18.7635 58.5691 19.4803 58.5691 20.9139V26.6742H61.7555V20.221C61.7555 17.1455 60.2416 15.6411 57.8341 15.6411C56.5735 15.6411 55.3129 16.3579 54.7394 17.4456V15.8743H51.5549V26.6742H54.7404V20.9608ZM45.0846 26.8596C42.0587 26.8596 39.5346 24.6394 39.5346 21.2389C39.5346 17.8365 42.0559 15.6383 45.0846 15.6383C48.1133 15.6383 50.6565 17.8365 50.6565 21.2389C50.6565 24.6413 48.1105 26.8596 45.0846 26.8596ZM45.0846 23.7152C46.4131 23.7152 47.515 22.7423 47.515 21.2398C47.515 19.7823 46.414 18.7874 45.0846 18.7874C44.7645 18.7824 44.4467 18.8426 44.1506 18.9644C43.8545 19.0861 43.5863 19.2669 43.3624 19.4956C43.1371 19.7256 42.9603 19.9985 42.8426 20.2981C42.7249 20.5978 42.6686 20.918 42.6771 21.2398C42.6781 22.7442 43.7781 23.7152 45.0846 23.7152ZM33.8222 18.7645C34.7617 18.7645 35.5875 19.5052 35.5875 20.9149V26.6761H38.7509V20.5422C38.7509 17.2812 37.1654 15.6392 34.6241 15.6392C33.869 15.6392 32.4469 15.8686 31.4147 17.5583C30.8183 16.3092 29.6724 15.6612 27.9788 15.6612C27.3908 15.6582 26.8144 15.8246 26.3185 16.1406C25.8226 16.4565 25.4282 16.9085 25.1824 17.4427V15.8753H21.994V26.6751H25.1795V20.9608C25.1795 19.3188 26.0741 18.7635 27.0365 18.7635C27.954 18.7635 28.7778 19.4803 28.8017 20.8451V26.6751H31.9881V20.9608C31.9881 19.3905 32.8139 18.7645 33.8222 18.7645Z" fill="#1A1A1A"/>
</svg>
