<svg width="977" height="596" viewBox="0 0 977 596" fill="none" xmlns="http://www.w3.org/2000/svg">
<g clip-path="url(#clip0_451_1021)">
<path d="M7.72002 169.578L4.88699 164.656H3.34652V169.578H1.32799V157.272H5.57754C6.52188 157.272 7.31867 157.437 7.96791 157.768C8.62895 158.098 9.11883 158.541 9.43755 159.096C9.76807 159.651 9.93333 160.27 9.93333 160.955C9.93333 161.758 9.69724 162.49 9.22507 163.151C8.7647 163.8 8.05054 164.243 7.08259 164.479L10.1281 169.578H7.72002ZM3.34652 163.044H5.57754C6.33301 163.044 6.89962 162.856 7.27736 162.478C7.6669 162.1 7.86167 161.593 7.86167 160.955C7.86167 160.318 7.6728 159.822 7.29506 159.468C6.91733 159.102 6.34482 158.919 5.57754 158.919H3.34652V163.044ZM21.4573 164.461C21.4573 164.827 21.4337 165.157 21.3865 165.453H13.9321C13.9911 166.232 14.2803 166.857 14.7997 167.329C15.3191 167.802 15.9565 168.038 16.712 168.038C17.798 168.038 18.5653 167.583 19.0138 166.674H21.1917C20.8966 167.571 20.3595 168.309 19.5804 168.888C18.8132 169.454 17.857 169.737 16.712 169.737C15.7795 169.737 14.9414 169.531 14.1977 169.118C13.4658 168.693 12.8874 168.103 12.4624 167.347C12.0493 166.58 11.8427 165.695 11.8427 164.691C11.8427 163.688 12.0434 162.808 12.4447 162.053C12.8579 161.286 13.4304 160.695 14.1623 160.282C14.9059 159.869 15.7559 159.663 16.712 159.663C17.6327 159.663 18.4531 159.863 19.1732 160.265C19.8933 160.666 20.454 161.232 20.8553 161.964C21.2567 162.684 21.4573 163.517 21.4573 164.461ZM19.3503 163.824C19.3385 163.08 19.0729 162.484 18.5535 162.035C18.0341 161.587 17.3907 161.362 16.6235 161.362C15.927 161.362 15.3309 161.587 14.8351 162.035C14.3393 162.472 14.0442 163.068 13.9498 163.824H19.3503ZM26.9851 169.737C26.2178 169.737 25.5272 169.602 24.9134 169.33C24.3114 169.047 23.8333 168.669 23.4792 168.197C23.1251 167.713 22.9362 167.176 22.9126 166.586H25.0019C25.0374 166.999 25.2321 167.347 25.5863 167.63C25.9522 167.902 26.4067 168.038 26.9497 168.038C27.5163 168.038 27.953 167.931 28.2599 167.719C28.5787 167.495 28.738 167.211 28.738 166.869C28.738 166.503 28.5609 166.232 28.2068 166.055C27.8645 165.877 27.3156 165.683 26.5601 165.47C25.8282 165.27 25.2321 165.075 24.7718 164.886C24.3114 164.697 23.91 164.408 23.5677 164.018C23.2372 163.629 23.0719 163.115 23.0719 162.478C23.0719 161.958 23.2254 161.486 23.5323 161.061C23.8392 160.625 24.276 160.282 24.8426 160.034C25.421 159.786 26.082 159.663 26.8257 159.663C27.9353 159.663 28.8265 159.946 29.4994 160.512C30.184 161.067 30.55 161.829 30.5972 162.797H28.5787C28.5432 162.36 28.3662 162.012 28.0475 161.752C27.7287 161.492 27.2979 161.362 26.7549 161.362C26.2237 161.362 25.8164 161.463 25.5331 161.663C25.2498 161.864 25.1082 162.13 25.1082 162.46C25.1082 162.72 25.2026 162.938 25.3915 163.115C25.5804 163.292 25.8105 163.434 26.082 163.54C26.3535 163.635 26.7549 163.759 27.2861 163.912C27.9943 164.101 28.5727 164.296 29.0213 164.496C29.4817 164.685 29.8771 164.969 30.2076 165.346C30.5382 165.724 30.7093 166.226 30.7211 166.851C30.7211 167.406 30.5677 167.902 30.2608 168.339C29.9539 168.775 29.5171 169.118 28.9505 169.366C28.3957 169.614 27.7405 169.737 26.9851 169.737ZM41.844 164.461C41.844 164.827 41.8204 165.157 41.7732 165.453H34.3187C34.3778 166.232 34.667 166.857 35.1863 167.329C35.7057 167.802 36.3432 168.038 37.0986 168.038C38.1846 168.038 38.9519 167.583 39.4005 166.674H41.5784C41.2833 167.571 40.7462 168.309 39.9671 168.888C39.1998 169.454 38.2437 169.737 37.0986 169.737C36.1661 169.737 35.328 169.531 34.5843 169.118C33.8525 168.693 33.274 168.103 32.8491 167.347C32.4359 166.58 32.2294 165.695 32.2294 164.691C32.2294 163.688 32.43 162.808 32.8314 162.053C33.2445 161.286 33.817 160.695 34.5489 160.282C35.2926 159.869 36.1425 159.663 37.0986 159.663C38.0194 159.663 38.8398 159.863 39.5598 160.265C40.2799 160.666 40.8406 161.232 41.242 161.964C41.6433 162.684 41.844 163.517 41.844 164.461ZM39.7369 163.824C39.7251 163.08 39.4595 162.484 38.9401 162.035C38.4207 161.587 37.7774 161.362 37.0101 161.362C36.3137 161.362 35.7175 161.587 35.2218 162.035C34.726 162.472 34.4309 163.068 34.3364 163.824H39.7369ZM43.1576 164.656C43.1576 163.676 43.3583 162.808 43.7596 162.053C44.1727 161.297 44.7276 160.713 45.424 160.3C46.1323 159.875 46.9113 159.663 47.7613 159.663C48.5285 159.663 49.1955 159.816 49.7621 160.123C50.3405 160.418 50.8009 160.79 51.1432 161.238V159.822H53.1794V169.578H51.1432V168.126C50.8009 168.587 50.3346 168.97 49.7444 169.277C49.1542 169.584 48.4813 169.737 47.7258 169.737C46.8877 169.737 46.1205 169.525 45.424 169.1C44.7276 168.663 44.1727 168.061 43.7596 167.294C43.3583 166.515 43.1576 165.635 43.1576 164.656ZM51.1432 164.691C51.1432 164.018 51.0015 163.434 50.7182 162.938C50.4467 162.442 50.0867 162.065 49.6381 161.805C49.1896 161.545 48.7056 161.415 48.1862 161.415C47.6668 161.415 47.1828 161.545 46.7343 161.805C46.2857 162.053 45.9198 162.425 45.6365 162.92C45.365 163.404 45.2292 163.983 45.2292 164.656C45.2292 165.329 45.365 165.919 45.6365 166.426C45.9198 166.934 46.2857 167.324 46.7343 167.595C47.1947 167.855 47.6786 167.985 48.1862 167.985C48.7056 167.985 49.1896 167.855 49.6381 167.595C50.0867 167.335 50.4467 166.958 50.7182 166.462C51.0015 165.954 51.1432 165.364 51.1432 164.691ZM57.8492 161.238C58.1444 160.743 58.5339 160.359 59.0179 160.087C59.5137 159.804 60.098 159.663 60.7708 159.663V161.752H60.2573C59.4664 161.752 58.8644 161.953 58.4513 162.354C58.0499 162.755 57.8492 163.452 57.8492 164.443V169.578H55.8307V159.822H57.8492V161.238ZM61.9534 164.691C61.9534 163.688 62.1541 162.808 62.5554 162.053C62.9686 161.286 63.5352 160.695 64.2552 160.282C64.9753 159.869 65.8016 159.663 66.7342 159.663C67.9146 159.663 68.8884 159.946 69.6557 160.512C70.4348 161.067 70.9601 161.864 71.2316 162.903H69.0537C68.8766 162.419 68.5933 162.041 68.2038 161.77C67.8142 161.498 67.3244 161.362 66.7342 161.362C65.9079 161.362 65.2468 161.657 64.751 162.248C64.2671 162.826 64.0251 163.641 64.0251 164.691C64.0251 165.742 64.2671 166.562 64.751 167.152C65.2468 167.743 65.9079 168.038 66.7342 168.038C67.9028 168.038 68.676 167.524 69.0537 166.497H71.2316C70.9483 167.489 70.4171 168.28 69.638 168.87C68.8589 169.448 67.891 169.737 66.7342 169.737C65.8016 169.737 64.9753 169.531 64.2552 169.118C63.5352 168.693 62.9686 168.103 62.5554 167.347C62.1541 166.58 61.9534 165.695 61.9534 164.691ZM78.2896 159.663C79.0332 159.663 79.6943 159.822 80.2727 160.141C80.8629 160.459 81.3233 160.931 81.6538 161.557C81.9961 162.183 82.1673 162.938 82.1673 163.824V169.578H80.1664V164.125C80.1664 163.251 79.9481 162.584 79.5113 162.124C79.0745 161.652 78.4784 161.415 77.723 161.415C76.9675 161.415 76.3655 161.652 75.9169 162.124C75.4801 162.584 75.2618 163.251 75.2618 164.125V169.578H73.2432V156.475H75.2618V160.955C75.6041 160.542 76.0349 160.223 76.5543 159.999C77.0855 159.775 77.6639 159.663 78.2896 159.663Z" fill="#1A1A1A"/>
<path d="M220.534 88.2158L219.772 85.2974C212.508 57.4761 174.139 54.617 162.831 81.0542C154.226 101.174 127.736 105.73 112.902 89.6423L98.9928 74.5566C89.1103 63.8385 72.1191 64.0449 62.5 75L15.5 142.725H960C960 142.725 921.593 128.111 887.341 117.528C854.325 107.327 820.041 100.344 785.485 100.344H721.317C705.725 100.344 690.327 96.8916 676.228 90.2344L611.35 59.6001C591.081 50.0297 566.947 59.6408 558.807 80.5251C550.233 102.521 524.124 111.769 503.617 100.073L487.583 90.9288C478.468 85.7305 468.049 83.2685 457.572 83.8374L310.517 91.8215C303.612 92.1964 296.835 93.8413 290.526 96.6737L263.512 108.802C245.903 116.708 225.411 106.892 220.534 88.2158Z" fill="#FFFFFF" stroke="#1A1A1A" stroke-width="0.737769"/>
<path d="M0 142.725H1200" stroke="#1A1A1A" stroke-width="0.737769"/>
<path d="M74 66.9343V21.731" stroke="#1A1A1A" stroke-width="0.737769"/>
<path d="M41.2631 3.742V13.5H39.9891V3.742H41.2631ZM47.1724 5.688C48.1058 5.688 48.8618 5.97267 49.4404 6.542C50.0191 7.102 50.3084 7.914 50.3084 8.978V13.5H49.0484V9.16C49.0484 8.39467 48.8571 7.81133 48.4744 7.41C48.0918 6.99933 47.5691 6.794 46.9064 6.794C46.2344 6.794 45.6978 7.004 45.2964 7.424C44.9044 7.844 44.7084 8.45533 44.7084 9.258V13.5H43.4344V5.828H44.7084V6.92C44.9604 6.528 45.3011 6.22467 45.7304 6.01C46.1691 5.79533 46.6498 5.688 47.1724 5.688ZM53.9435 6.878V11.4C53.9435 11.7733 54.0229 12.0393 54.1815 12.198C54.3402 12.3473 54.6155 12.422 55.0075 12.422H55.9455V13.5H54.7975C54.0882 13.5 53.5562 13.3367 53.2015 13.01C52.8469 12.6833 52.6695 12.1467 52.6695 11.4V6.878H51.6755V5.828H52.6695V3.896H53.9435V5.828H55.9455V6.878H53.9435ZM64.4891 9.37C64.4891 9.61267 64.4751 9.86933 64.4471 10.14H58.3151C58.3618 10.896 58.6185 11.4887 59.0851 11.918C59.5611 12.338 60.1351 12.548 60.8071 12.548C61.3578 12.548 61.8151 12.422 62.1791 12.17C62.5525 11.9087 62.8138 11.5633 62.9631 11.134H64.3351C64.1298 11.8713 63.7191 12.4733 63.1031 12.94C62.4871 13.3973 61.7218 13.626 60.8071 13.626C60.0791 13.626 59.4258 13.4627 58.8471 13.136C58.2778 12.8093 57.8298 12.3473 57.5031 11.75C57.1765 11.1433 57.0131 10.4433 57.0131 9.65C57.0131 8.85667 57.1718 8.16133 57.4891 7.564C57.8065 6.96667 58.2498 6.50933 58.8191 6.192C59.3978 5.86533 60.0605 5.702 60.8071 5.702C61.5351 5.702 62.1791 5.86067 62.7391 6.178C63.2991 6.49533 63.7285 6.934 64.0271 7.494C64.3351 8.04467 64.4891 8.67 64.4891 9.37ZM63.1731 9.104C63.1731 8.61867 63.0658 8.20333 62.8511 7.858C62.6365 7.50333 62.3425 7.23733 61.9691 7.06C61.6051 6.87333 61.1991 6.78 60.7511 6.78C60.1071 6.78 59.5565 6.98533 59.0991 7.396C58.6511 7.80667 58.3945 8.376 58.3291 9.104H63.1731ZM67.4448 7.074C67.6688 6.63533 67.9861 6.29467 68.3968 6.052C68.8168 5.80933 69.3254 5.688 69.9228 5.688V7.004H69.5868C68.1588 7.004 67.4448 7.77867 67.4448 9.328V13.5H66.1708V5.828H67.4448V7.074ZM74.2494 12.324L76.6294 5.828H77.9874L74.9774 13.5H73.4934L70.4834 5.828H71.8554L74.2494 12.324ZM79.8991 4.582C79.6564 4.582 79.4511 4.498 79.2831 4.33C79.1151 4.162 79.0311 3.95667 79.0311 3.714C79.0311 3.47133 79.1151 3.266 79.2831 3.098C79.4511 2.93 79.6564 2.846 79.8991 2.846C80.1324 2.846 80.3284 2.93 80.4871 3.098C80.6551 3.266 80.7391 3.47133 80.7391 3.714C80.7391 3.95667 80.6551 4.162 80.4871 4.33C80.3284 4.498 80.1324 4.582 79.8991 4.582ZM80.5151 5.828V13.5H79.2411V5.828H80.5151ZM89.6864 9.37C89.6864 9.61267 89.6724 9.86933 89.6444 10.14H83.5124C83.5591 10.896 83.8157 11.4887 84.2824 11.918C84.7584 12.338 85.3324 12.548 86.0044 12.548C86.5551 12.548 87.0124 12.422 87.3764 12.17C87.7497 11.9087 88.0111 11.5633 88.1604 11.134H89.5324C89.3271 11.8713 88.9164 12.4733 88.3004 12.94C87.6844 13.3973 86.9191 13.626 86.0044 13.626C85.2764 13.626 84.6231 13.4627 84.0444 13.136C83.4751 12.8093 83.0271 12.3473 82.7004 11.75C82.3737 11.1433 82.2104 10.4433 82.2104 9.65C82.2104 8.85667 82.3691 8.16133 82.6864 7.564C83.0037 6.96667 83.4471 6.50933 84.0164 6.192C84.5951 5.86533 85.2577 5.702 86.0044 5.702C86.7324 5.702 87.3764 5.86067 87.9364 6.178C88.4964 6.49533 88.9257 6.934 89.2244 7.494C89.5324 8.04467 89.6864 8.67 89.6864 9.37ZM88.3704 9.104C88.3704 8.61867 88.2631 8.20333 88.0484 7.858C87.8337 7.50333 87.5397 7.23733 87.1664 7.06C86.8024 6.87333 86.3964 6.78 85.9484 6.78C85.3044 6.78 84.7537 6.98533 84.2964 7.396C83.8484 7.80667 83.5917 8.376 83.5264 9.104H88.3704ZM101.588 5.828L99.194 13.5H97.878L96.03 7.41L94.182 13.5H92.866L90.458 5.828H91.76L93.524 12.268L95.428 5.828H96.73L98.592 12.282L100.328 5.828H101.588ZM105.568 13.626C104.98 13.626 104.453 13.528 103.986 13.332C103.52 13.1267 103.151 12.8467 102.88 12.492C102.61 12.128 102.46 11.7127 102.432 11.246H103.748C103.786 11.6287 103.963 11.9413 104.28 12.184C104.607 12.4267 105.032 12.548 105.554 12.548C106.04 12.548 106.422 12.4407 106.702 12.226C106.982 12.0113 107.122 11.7407 107.122 11.414C107.122 11.078 106.973 10.8307 106.674 10.672C106.376 10.504 105.914 10.3407 105.288 10.182C104.719 10.0327 104.252 9.88333 103.888 9.734C103.534 9.57533 103.226 9.34667 102.964 9.048C102.712 8.74 102.586 8.33867 102.586 7.844C102.586 7.452 102.703 7.09267 102.936 6.766C103.17 6.43933 103.501 6.18267 103.93 5.996C104.36 5.8 104.85 5.702 105.4 5.702C106.25 5.702 106.936 5.91667 107.458 6.346C107.981 6.77533 108.261 7.36333 108.298 8.11H107.024C106.996 7.70867 106.833 7.38667 106.534 7.144C106.245 6.90133 105.853 6.78 105.358 6.78C104.901 6.78 104.537 6.878 104.266 7.074C103.996 7.27 103.86 7.52667 103.86 7.844C103.86 8.096 103.94 8.306 104.098 8.474C104.266 8.63267 104.472 8.76333 104.714 8.866C104.966 8.95933 105.312 9.06667 105.75 9.188C106.301 9.33733 106.749 9.48667 107.094 9.636C107.44 9.776 107.734 9.99067 107.976 10.28C108.228 10.5693 108.359 10.9473 108.368 11.414C108.368 11.834 108.252 12.212 108.018 12.548C107.785 12.884 107.454 13.15 107.024 13.346C106.604 13.5327 106.119 13.626 105.568 13.626Z" fill="#1A1A1A"/>
<path d="M188 62.9306V21.731" stroke="#1A1A1A" stroke-width="0.737769"/>
<path d="M133.688 3.742V9.916C133.688 10.784 133.898 11.428 134.318 11.848C134.748 12.268 135.34 12.478 136.096 12.478C136.843 12.478 137.426 12.268 137.846 11.848C138.276 11.428 138.49 10.784 138.49 9.916V3.742H139.764V9.902C139.764 10.714 139.601 11.4 139.274 11.96C138.948 12.5107 138.504 12.9213 137.944 13.192C137.394 13.4627 136.773 13.598 136.082 13.598C135.392 13.598 134.766 13.4627 134.206 13.192C133.656 12.9213 133.217 12.5107 132.89 11.96C132.573 11.4 132.414 10.714 132.414 9.902V3.742H133.688ZM144.606 13.626C144.018 13.626 143.49 13.528 143.024 13.332C142.557 13.1267 142.188 12.8467 141.918 12.492C141.647 12.128 141.498 11.7127 141.47 11.246H142.786C142.823 11.6287 143 11.9413 143.318 12.184C143.644 12.4267 144.069 12.548 144.592 12.548C145.077 12.548 145.46 12.4407 145.74 12.226C146.02 12.0113 146.16 11.7407 146.16 11.414C146.16 11.078 146.01 10.8307 145.712 10.672C145.413 10.504 144.951 10.3407 144.326 10.182C143.756 10.0327 143.29 9.88333 142.926 9.734C142.571 9.57533 142.263 9.34667 142.002 9.048C141.75 8.74 141.624 8.33867 141.624 7.844C141.624 7.452 141.74 7.09267 141.974 6.766C142.207 6.43933 142.538 6.18267 142.968 5.996C143.397 5.8 143.887 5.702 144.438 5.702C145.287 5.702 145.973 5.91667 146.496 6.346C147.018 6.77533 147.298 7.36333 147.336 8.11H146.062C146.034 7.70867 145.87 7.38667 145.572 7.144C145.282 6.90133 144.89 6.78 144.396 6.78C143.938 6.78 143.574 6.878 143.304 7.074C143.033 7.27 142.898 7.52667 142.898 7.844C142.898 8.096 142.977 8.306 143.136 8.474C143.304 8.63267 143.509 8.76333 143.752 8.866C144.004 8.95933 144.349 9.06667 144.788 9.188C145.338 9.33733 145.786 9.48667 146.132 9.636C146.477 9.776 146.771 9.99067 147.014 10.28C147.266 10.5693 147.396 10.9473 147.406 11.414C147.406 11.834 147.289 12.212 147.056 12.548C146.822 12.884 146.491 13.15 146.062 13.346C145.642 13.5327 145.156 13.626 144.606 13.626ZM148.728 9.636C148.728 8.852 148.887 8.166 149.204 7.578C149.521 6.98067 149.955 6.51867 150.506 6.192C151.066 5.86533 151.687 5.702 152.368 5.702C153.04 5.702 153.623 5.84667 154.118 6.136C154.613 6.42533 154.981 6.78933 155.224 7.228V5.828H156.512V13.5H155.224V12.072C154.972 12.52 154.594 12.8933 154.09 13.192C153.595 13.4813 153.017 13.626 152.354 13.626C151.673 13.626 151.057 13.458 150.506 13.122C149.955 12.786 149.521 12.3147 149.204 11.708C148.887 11.1013 148.728 10.4107 148.728 9.636ZM155.224 9.65C155.224 9.07133 155.107 8.56733 154.874 8.138C154.641 7.70867 154.323 7.382 153.922 7.158C153.53 6.92467 153.096 6.808 152.62 6.808C152.144 6.808 151.71 6.92 151.318 7.144C150.926 7.368 150.613 7.69467 150.38 8.124C150.147 8.55333 150.03 9.05733 150.03 9.636C150.03 10.224 150.147 10.7373 150.38 11.176C150.613 11.6053 150.926 11.9367 151.318 12.17C151.71 12.394 152.144 12.506 152.62 12.506C153.096 12.506 153.53 12.394 153.922 12.17C154.323 11.9367 154.641 11.6053 154.874 11.176C155.107 10.7373 155.224 10.2287 155.224 9.65ZM159.939 7.256C160.2 6.79867 160.583 6.42533 161.087 6.136C161.591 5.84667 162.165 5.702 162.809 5.702C163.5 5.702 164.12 5.86533 164.671 6.192C165.222 6.51867 165.656 6.98067 165.973 7.578C166.29 8.166 166.449 8.852 166.449 9.636C166.449 10.4107 166.29 11.1013 165.973 11.708C165.656 12.3147 165.217 12.786 164.657 13.122C164.106 13.458 163.49 13.626 162.809 13.626C162.146 13.626 161.563 13.4813 161.059 13.192C160.564 12.9027 160.191 12.534 159.939 12.086V13.5H158.665V3.14H159.939V7.256ZM165.147 9.636C165.147 9.05733 165.03 8.55333 164.797 8.124C164.564 7.69467 164.246 7.368 163.845 7.144C163.453 6.92 163.019 6.808 162.543 6.808C162.076 6.808 161.642 6.92467 161.241 7.158C160.849 7.382 160.532 7.71333 160.289 8.152C160.056 8.58133 159.939 9.08067 159.939 9.65C159.939 10.2287 160.056 10.7373 160.289 11.176C160.532 11.6053 160.849 11.9367 161.241 12.17C161.642 12.394 162.076 12.506 162.543 12.506C163.019 12.506 163.453 12.394 163.845 12.17C164.246 11.9367 164.564 11.6053 164.797 11.176C165.03 10.7373 165.147 10.224 165.147 9.636ZM168.784 4.582C168.541 4.582 168.336 4.498 168.168 4.33C168 4.162 167.916 3.95667 167.916 3.714C167.916 3.47133 168 3.266 168.168 3.098C168.336 2.93 168.541 2.846 168.784 2.846C169.017 2.846 169.213 2.93 169.372 3.098C169.54 3.266 169.624 3.47133 169.624 3.714C169.624 3.95667 169.54 4.162 169.372 4.33C169.213 4.498 169.017 4.582 168.784 4.582ZM169.4 5.828V13.5H168.126V5.828H169.4ZM172.845 3.14V13.5H171.571V3.14H172.845ZM175.674 4.582C175.432 4.582 175.226 4.498 175.058 4.33C174.89 4.162 174.806 3.95667 174.806 3.714C174.806 3.47133 174.89 3.266 175.058 3.098C175.226 2.93 175.432 2.846 175.674 2.846C175.908 2.846 176.104 2.93 176.262 3.098C176.43 3.266 176.514 3.47133 176.514 3.714C176.514 3.95667 176.43 4.162 176.262 4.33C176.104 4.498 175.908 4.582 175.674 4.582ZM176.29 5.828V13.5H175.016V5.828H176.29ZM180.016 6.878V11.4C180.016 11.7733 180.095 12.0393 180.254 12.198C180.412 12.3473 180.688 12.422 181.08 12.422H182.018V13.5H180.87C180.16 13.5 179.628 13.3367 179.274 13.01C178.919 12.6833 178.742 12.1467 178.742 11.4V6.878H177.748V5.828H178.742V3.896H180.016V5.828H182.018V6.878H180.016ZM190.169 5.828L185.549 17.112H184.233L185.745 13.416L182.651 5.828H184.065L186.473 12.044L188.853 5.828H190.169ZM201.188 3.742V4.778H198.528V13.5H197.254V4.778H194.58V3.742H201.188ZM209.757 9.37C209.757 9.61267 209.743 9.86933 209.715 10.14H203.583C203.629 10.896 203.886 11.4887 204.353 11.918C204.829 12.338 205.403 12.548 206.075 12.548C206.625 12.548 207.083 12.422 207.447 12.17C207.82 11.9087 208.081 11.5633 208.231 11.134H209.603C209.397 11.8713 208.987 12.4733 208.371 12.94C207.755 13.3973 206.989 13.626 206.075 13.626C205.347 13.626 204.693 13.4627 204.115 13.136C203.545 12.8093 203.097 12.3473 202.771 11.75C202.444 11.1433 202.281 10.4433 202.281 9.65C202.281 8.85667 202.439 8.16133 202.757 7.564C203.074 6.96667 203.517 6.50933 204.087 6.192C204.665 5.86533 205.328 5.702 206.075 5.702C206.803 5.702 207.447 5.86067 208.007 6.178C208.567 6.49533 208.996 6.934 209.295 7.494C209.603 8.04467 209.757 8.67 209.757 9.37ZM208.441 9.104C208.441 8.61867 208.333 8.20333 208.119 7.858C207.904 7.50333 207.61 7.23733 207.237 7.06C206.873 6.87333 206.467 6.78 206.019 6.78C205.375 6.78 204.824 6.98533 204.367 7.396C203.919 7.80667 203.662 8.376 203.597 9.104H208.441ZM214.154 13.626C213.566 13.626 213.039 13.528 212.572 13.332C212.106 13.1267 211.737 12.8467 211.466 12.492C211.196 12.128 211.046 11.7127 211.018 11.246H212.334C212.372 11.6287 212.549 11.9413 212.866 12.184C213.193 12.4267 213.618 12.548 214.14 12.548C214.626 12.548 215.008 12.4407 215.288 12.226C215.568 12.0113 215.708 11.7407 215.708 11.414C215.708 11.078 215.559 10.8307 215.26 10.672C214.962 10.504 214.5 10.3407 213.874 10.182C213.305 10.0327 212.838 9.88333 212.474 9.734C212.12 9.57533 211.812 9.34667 211.55 9.048C211.298 8.74 211.172 8.33867 211.172 7.844C211.172 7.452 211.289 7.09267 211.522 6.766C211.756 6.43933 212.087 6.18267 212.516 5.996C212.946 5.8 213.436 5.702 213.986 5.702C214.836 5.702 215.522 5.91667 216.044 6.346C216.567 6.77533 216.847 7.36333 216.884 8.11H215.61C215.582 7.70867 215.419 7.38667 215.12 7.144C214.831 6.90133 214.439 6.78 213.944 6.78C213.487 6.78 213.123 6.878 212.852 7.074C212.582 7.27 212.446 7.52667 212.446 7.844C212.446 8.096 212.526 8.306 212.684 8.474C212.852 8.63267 213.058 8.76333 213.3 8.866C213.552 8.95933 213.898 9.06667 214.336 9.188C214.887 9.33733 215.335 9.48667 215.68 9.636C216.026 9.776 216.32 9.99067 216.562 10.28C216.814 10.5693 216.945 10.9473 216.954 11.414C216.954 11.834 216.838 12.212 216.604 12.548C216.371 12.884 216.04 13.15 215.61 13.346C215.19 13.5327 214.705 13.626 214.154 13.626ZM220.307 6.878V11.4C220.307 11.7733 220.386 12.0393 220.545 12.198C220.703 12.3473 220.979 12.422 221.371 12.422H222.309V13.5H221.161C220.451 13.5 219.919 13.3367 219.565 13.01C219.21 12.6833 219.033 12.1467 219.033 11.4V6.878H218.039V5.828H219.033V3.896H220.307V5.828H222.309V6.878H220.307ZM224.51 4.582C224.268 4.582 224.062 4.498 223.894 4.33C223.726 4.162 223.642 3.95667 223.642 3.714C223.642 3.47133 223.726 3.266 223.894 3.098C224.062 2.93 224.268 2.846 224.51 2.846C224.744 2.846 224.94 2.93 225.098 3.098C225.266 3.266 225.35 3.47133 225.35 3.714C225.35 3.95667 225.266 4.162 225.098 4.33C224.94 4.498 224.744 4.582 224.51 4.582ZM225.126 5.828V13.5H223.852V5.828H225.126ZM231.036 5.688C231.969 5.688 232.725 5.97267 233.304 6.542C233.882 7.102 234.172 7.914 234.172 8.978V13.5H232.912V9.16C232.912 8.39467 232.72 7.81133 232.338 7.41C231.955 6.99933 231.432 6.794 230.77 6.794C230.098 6.794 229.561 7.004 229.16 7.424C228.768 7.844 228.572 8.45533 228.572 9.258V13.5H227.298V5.828H228.572V6.92C228.824 6.528 229.164 6.22467 229.594 6.01C230.032 5.79533 230.513 5.688 231.036 5.688ZM239.417 5.702C240.079 5.702 240.658 5.84667 241.153 6.136C241.657 6.42533 242.03 6.78933 242.273 7.228V5.828H243.561V13.668C243.561 14.368 243.411 14.9887 243.113 15.53C242.814 16.0807 242.385 16.51 241.825 16.818C241.274 17.126 240.63 17.28 239.893 17.28C238.885 17.28 238.045 17.042 237.373 16.566C236.701 16.09 236.304 15.4413 236.183 14.62H237.443C237.583 15.0867 237.872 15.46 238.311 15.74C238.749 16.0293 239.277 16.174 239.893 16.174C240.593 16.174 241.162 15.9547 241.601 15.516C242.049 15.0773 242.273 14.4613 242.273 13.668V12.058C242.021 12.506 241.647 12.8793 241.153 13.178C240.658 13.4767 240.079 13.626 239.417 13.626C238.735 13.626 238.115 13.458 237.555 13.122C237.004 12.786 236.57 12.3147 236.253 11.708C235.935 11.1013 235.777 10.4107 235.777 9.636C235.777 8.852 235.935 8.166 236.253 7.578C236.57 6.98067 237.004 6.51867 237.555 6.192C238.115 5.86533 238.735 5.702 239.417 5.702ZM242.273 9.65C242.273 9.07133 242.156 8.56733 241.923 8.138C241.689 7.70867 241.372 7.382 240.971 7.158C240.579 6.92467 240.145 6.808 239.669 6.808C239.193 6.808 238.759 6.92 238.367 7.144C237.975 7.368 237.662 7.69467 237.429 8.124C237.195 8.55333 237.079 9.05733 237.079 9.636C237.079 10.224 237.195 10.7373 237.429 11.176C237.662 11.6053 237.975 11.9367 238.367 12.17C238.759 12.394 239.193 12.506 239.669 12.506C240.145 12.506 240.579 12.394 240.971 12.17C241.372 11.9367 241.689 11.6053 241.923 11.176C242.156 10.7373 242.273 10.2287 242.273 9.65Z" fill="#1A1A1A"/>
<path d="M583 57.8592V21.731" stroke="#1A1A1A" stroke-width="0.737769"/>
<path d="M563.884 13.598C563.24 13.598 562.661 13.486 562.148 13.262C561.644 13.0287 561.247 12.7113 560.958 12.31C560.669 11.8993 560.519 11.428 560.51 10.896H561.868C561.915 11.3533 562.101 11.7407 562.428 12.058C562.764 12.366 563.249 12.52 563.884 12.52C564.491 12.52 564.967 12.3707 565.312 12.072C565.667 11.764 565.844 11.372 565.844 10.896C565.844 10.5227 565.741 10.2193 565.536 9.986C565.331 9.75267 565.074 9.57533 564.766 9.454C564.458 9.33267 564.043 9.202 563.52 9.062C562.876 8.894 562.358 8.726 561.966 8.558C561.583 8.39 561.252 8.12867 560.972 7.774C560.701 7.41 560.566 6.92467 560.566 6.318C560.566 5.786 560.701 5.31467 560.972 4.904C561.243 4.49333 561.621 4.176 562.106 3.952C562.601 3.728 563.165 3.616 563.8 3.616C564.715 3.616 565.461 3.84467 566.04 4.302C566.628 4.75933 566.959 5.366 567.034 6.122H565.634C565.587 5.74867 565.391 5.422 565.046 5.142C564.701 4.85267 564.243 4.708 563.674 4.708C563.142 4.708 562.708 4.848 562.372 5.128C562.036 5.39867 561.868 5.78133 561.868 6.276C561.868 6.63067 561.966 6.92 562.162 7.144C562.367 7.368 562.615 7.54067 562.904 7.662C563.203 7.774 563.618 7.90467 564.15 8.054C564.794 8.23133 565.312 8.40867 565.704 8.586C566.096 8.754 566.432 9.02 566.712 9.384C566.992 9.73867 567.132 10.224 567.132 10.84C567.132 11.316 567.006 11.764 566.754 12.184C566.502 12.604 566.129 12.9447 565.634 13.206C565.139 13.4673 564.556 13.598 563.884 13.598ZM575.811 5.828V13.5H574.537V12.366C574.294 12.758 573.954 13.066 573.515 13.29C573.086 13.5047 572.61 13.612 572.087 13.612C571.49 13.612 570.953 13.4907 570.477 13.248C570.001 12.996 569.623 12.6227 569.343 12.128C569.072 11.6333 568.937 11.0313 568.937 10.322V5.828H570.197V10.154C570.197 10.91 570.388 11.4933 570.771 11.904C571.154 12.3053 571.676 12.506 572.339 12.506C573.02 12.506 573.557 12.296 573.949 11.876C574.341 11.456 574.537 10.8447 574.537 10.042V5.828H575.811ZM579.236 7.074C579.46 6.63533 579.777 6.29467 580.188 6.052C580.608 5.80933 581.117 5.688 581.714 5.688V7.004H581.378C579.95 7.004 579.236 7.77867 579.236 9.328V13.5H577.962V5.828H579.236V7.074ZM586.041 12.324L588.421 5.828H589.779L586.769 13.5H585.285L582.275 5.828H583.647L586.041 12.324ZM598.032 9.37C598.032 9.61267 598.018 9.86933 597.99 10.14H591.858C591.905 10.896 592.162 11.4887 592.628 11.918C593.104 12.338 593.678 12.548 594.35 12.548C594.901 12.548 595.358 12.422 595.722 12.17C596.096 11.9087 596.357 11.5633 596.506 11.134H597.878C597.673 11.8713 597.262 12.4733 596.646 12.94C596.03 13.3973 595.265 13.626 594.35 13.626C593.622 13.626 592.969 13.4627 592.39 13.136C591.821 12.8093 591.373 12.3473 591.046 11.75C590.72 11.1433 590.556 10.4433 590.556 9.65C590.556 8.85667 590.715 8.16133 591.032 7.564C591.35 6.96667 591.793 6.50933 592.362 6.192C592.941 5.86533 593.604 5.702 594.35 5.702C595.078 5.702 595.722 5.86067 596.282 6.178C596.842 6.49533 597.272 6.934 597.57 7.494C597.878 8.04467 598.032 8.67 598.032 9.37ZM596.716 9.104C596.716 8.61867 596.609 8.20333 596.394 7.858C596.18 7.50333 595.886 7.23733 595.512 7.06C595.148 6.87333 594.742 6.78 594.294 6.78C593.65 6.78 593.1 6.98533 592.642 7.396C592.194 7.80667 591.938 8.376 591.872 9.104H596.716ZM606.322 5.828L601.702 17.112H600.386L601.898 13.416L598.804 5.828H600.218L602.626 12.044L605.006 5.828H606.322Z" fill="#1A1A1A"/>
<path d="M5.34735 363.284C6.65763 363.284 7.80265 363.538 8.78241 364.045C9.77397 364.541 10.5353 365.261 11.0665 366.205C11.6095 367.138 11.881 368.23 11.881 369.481C11.881 370.732 11.6095 371.818 11.0665 372.739C10.5353 373.66 9.77397 374.368 8.78241 374.864C7.80265 375.348 6.65763 375.59 5.34735 375.59H1.32799V363.284H5.34735ZM5.34735 373.943C6.78748 373.943 7.89118 373.554 8.65846 372.775C9.42574 371.995 9.80938 370.898 9.80938 369.481C9.80938 368.053 9.42574 366.937 8.65846 366.135C7.89118 365.332 6.78748 364.931 5.34735 364.931H3.34652V373.943H5.34735ZM22.8234 370.473C22.8234 370.839 22.7998 371.169 22.7525 371.464H15.2981C15.3571 372.243 15.6463 372.869 16.1657 373.341C16.6851 373.813 17.3225 374.049 18.078 374.049C19.164 374.049 19.9313 373.595 20.3799 372.686H22.5578C22.2627 373.583 21.7256 374.321 20.9465 374.899C20.1792 375.466 19.223 375.749 18.078 375.749C17.1455 375.749 16.3074 375.543 15.5637 375.129C14.8318 374.705 14.2534 374.114 13.8285 373.359C13.4153 372.592 13.2087 371.706 13.2087 370.703C13.2087 369.699 13.4094 368.82 13.8108 368.065C14.2239 367.297 14.7964 366.707 15.5283 366.294C16.272 365.881 17.1219 365.674 18.078 365.674C18.9988 365.674 19.8192 365.875 20.5392 366.276C21.2593 366.678 21.82 367.244 22.2213 367.976C22.6227 368.696 22.8234 369.528 22.8234 370.473ZM20.7163 369.835C20.7045 369.092 20.4389 368.495 19.9195 368.047C19.4001 367.598 18.7568 367.374 17.9895 367.374C17.293 367.374 16.6969 367.598 16.2011 368.047C15.7054 368.484 15.4103 369.08 15.3158 369.835H20.7163ZM28.3511 375.749C27.5838 375.749 26.8933 375.613 26.2794 375.342C25.6774 375.059 25.1993 374.681 24.8452 374.209C24.4911 373.725 24.3022 373.188 24.2786 372.597H26.368C26.4034 373.011 26.5982 373.359 26.9523 373.642C27.3182 373.914 27.7727 374.049 28.3157 374.049C28.8823 374.049 29.3191 373.943 29.626 373.731C29.9447 373.506 30.104 373.223 30.104 372.881C30.104 372.515 29.927 372.243 29.5728 372.066C29.2305 371.889 28.6816 371.694 27.9261 371.482C27.1943 371.281 26.5982 371.086 26.1378 370.898C25.6774 370.709 25.2761 370.42 24.9337 370.03C24.6032 369.64 24.438 369.127 24.438 368.49C24.438 367.97 24.5914 367.498 24.8983 367.073C25.2052 366.636 25.642 366.294 26.2086 366.046C26.787 365.798 27.4481 365.674 28.1917 365.674C29.3013 365.674 30.1926 365.958 30.8654 366.524C31.5501 367.079 31.916 367.84 31.9632 368.808H29.9447C29.9093 368.372 29.7322 368.023 29.4135 367.764C29.0948 367.504 28.6639 367.374 28.1209 367.374C27.5897 367.374 27.1825 367.474 26.8992 367.675C26.6159 367.876 26.4742 368.141 26.4742 368.472C26.4742 368.732 26.5686 368.95 26.7575 369.127C26.9464 369.304 27.1766 369.446 27.4481 369.552C27.7196 369.646 28.1209 369.77 28.6521 369.924C29.3604 370.113 29.9388 370.307 30.3873 370.508C30.8477 370.697 31.2432 370.98 31.5737 371.358C31.9042 371.736 32.0754 372.237 32.0872 372.863C32.0872 373.418 31.9337 373.914 31.6268 374.35C31.3199 374.787 30.8831 375.129 30.3165 375.377C29.7617 375.625 29.1066 375.749 28.3511 375.749ZM35.2952 364.541C34.9293 364.541 34.6224 364.417 34.3745 364.169C34.1266 363.921 34.0026 363.614 34.0026 363.248C34.0026 362.883 34.1266 362.576 34.3745 362.328C34.6224 362.08 34.9293 361.956 35.2952 361.956C35.6493 361.956 35.9504 362.08 36.1982 362.328C36.4461 362.576 36.5701 362.883 36.5701 363.248C36.5701 363.614 36.4461 363.921 36.1982 364.169C35.9504 364.417 35.6493 364.541 35.2952 364.541ZM36.2868 365.834V375.59H34.2682V365.834H36.2868ZM42.8678 365.674C43.6232 365.674 44.2902 365.828 44.8686 366.135C45.4588 366.43 45.9192 366.802 46.2497 367.25V365.834H48.286V375.749C48.286 376.646 48.0971 377.443 47.7193 378.14C47.3416 378.848 46.7927 379.403 46.0726 379.804C45.3644 380.205 44.5145 380.406 43.5229 380.406C42.2008 380.406 41.103 380.093 40.2295 379.468C39.356 378.854 38.8602 378.016 38.7422 376.953H40.743C40.8965 377.461 41.2211 377.868 41.7169 378.175C42.2244 378.494 42.8265 378.653 43.5229 378.653C44.3374 378.653 44.9925 378.405 45.4883 377.909C45.9959 377.414 46.2497 376.694 46.2497 375.749V374.12C45.9074 374.581 45.4411 374.97 44.8509 375.289C44.2725 375.596 43.6114 375.749 42.8678 375.749C42.0179 375.749 41.2388 375.537 40.5305 375.112C39.8341 374.675 39.2793 374.073 38.8661 373.306C38.4648 372.527 38.2641 371.647 38.2641 370.667C38.2641 369.688 38.4648 368.82 38.8661 368.065C39.2793 367.309 39.8341 366.725 40.5305 366.312C41.2388 365.887 42.0179 365.674 42.8678 365.674ZM46.2497 370.703C46.2497 370.03 46.1081 369.446 45.8248 368.95C45.5533 368.454 45.1932 368.076 44.7447 367.817C44.2961 367.557 43.8121 367.427 43.2927 367.427C42.7733 367.427 42.2894 367.557 41.8408 367.817C41.3922 368.065 41.0263 368.436 40.743 368.932C40.4715 369.416 40.3357 369.995 40.3357 370.667C40.3357 371.34 40.4715 371.931 40.743 372.438C41.0263 372.946 41.3922 373.335 41.8408 373.607C42.3012 373.866 42.7851 373.996 43.2927 373.996C43.8121 373.996 44.2961 373.866 44.7447 373.607C45.1932 373.347 45.5533 372.969 45.8248 372.474C46.1081 371.966 46.2497 371.376 46.2497 370.703ZM55.8596 365.674C56.6269 365.674 57.3115 365.834 57.9136 366.152C58.5274 366.471 59.0055 366.943 59.3478 367.569C59.6901 368.194 59.8613 368.95 59.8613 369.835V375.59H57.8604V370.136C57.8604 369.263 57.6421 368.596 57.2053 368.135C56.7685 367.663 56.1724 367.427 55.417 367.427C54.6615 367.427 54.0595 367.663 53.6109 368.135C53.1741 368.596 52.9558 369.263 52.9558 370.136V375.59H50.9372V365.834H52.9558V366.949C53.2863 366.548 53.7053 366.235 54.2129 366.011C54.7323 365.786 55.2812 365.674 55.8596 365.674Z" fill="#1A1A1A"/>
<path d="M0 348.736H1200" stroke="#1A1A1A" stroke-width="0.737769"/>
<path d="M619.968 258.621L616.977 257.986C601.259 254.651 584.91 256.111 569.959 261.997C563.657 264.479 556.053 267.452 547.148 270.902C509.815 285.365 409.989 266.078 357.052 254.154C336.614 249.549 315.228 257.738 303.661 275.206C287.739 299.251 254.653 303.558 228.025 292.487C211.808 285.745 194.417 282.253 181.5 289.346C102.849 332.539 43.0564 348.737 43.0564 348.737H938.957L774.337 307.868L693.958 296.739C679.049 294.674 665.209 287.837 654.509 277.25C645.018 267.859 633.029 261.393 619.968 258.621Z" fill="#FFFFFF" stroke="#1A1A1A" stroke-width="0.737769" stroke-linejoin="round"/>
<path d="M201.799 285.146V265.809" stroke="#1A1A1A" stroke-width="0.737769"/>
<path d="M151.614 248.82C152.678 248.82 153.597 249.021 154.372 249.422C155.156 249.814 155.753 250.379 156.164 251.116C156.584 251.853 156.794 252.721 156.794 253.72C156.794 254.719 156.584 255.587 156.164 256.324C155.753 257.052 155.156 257.612 154.372 258.004C153.597 258.387 152.678 258.578 151.614 258.578H148.576V248.82H151.614ZM151.614 257.528C152.874 257.528 153.835 257.197 154.498 256.534C155.16 255.862 155.492 254.924 155.492 253.72C155.492 252.507 155.156 251.559 154.484 250.878C153.821 250.197 152.864 249.856 151.614 249.856H149.85V257.528H151.614ZM165.474 254.448C165.474 254.691 165.46 254.947 165.432 255.218H159.3C159.347 255.974 159.603 256.567 160.07 256.996C160.546 257.416 161.12 257.626 161.792 257.626C162.343 257.626 162.8 257.5 163.164 257.248C163.537 256.987 163.799 256.641 163.948 256.212H165.32C165.115 256.949 164.704 257.551 164.088 258.018C163.472 258.475 162.707 258.704 161.792 258.704C161.064 258.704 160.411 258.541 159.832 258.214C159.263 257.887 158.815 257.425 158.488 256.828C158.161 256.221 157.998 255.521 157.998 254.728C157.998 253.935 158.157 253.239 158.474 252.642C158.791 252.045 159.235 251.587 159.804 251.27C160.383 250.943 161.045 250.78 161.792 250.78C162.52 250.78 163.164 250.939 163.724 251.256C164.284 251.573 164.713 252.012 165.012 252.572C165.32 253.123 165.474 253.748 165.474 254.448ZM164.158 254.182C164.158 253.697 164.051 253.281 163.836 252.936C163.621 252.581 163.327 252.315 162.954 252.138C162.59 251.951 162.184 251.858 161.736 251.858C161.092 251.858 160.541 252.063 160.084 252.474C159.636 252.885 159.379 253.454 159.314 254.182H164.158ZM169.872 258.704C169.284 258.704 168.756 258.606 168.29 258.41C167.823 258.205 167.454 257.925 167.184 257.57C166.913 257.206 166.764 256.791 166.736 256.324H168.052C168.089 256.707 168.266 257.019 168.584 257.262C168.91 257.505 169.335 257.626 169.858 257.626C170.343 257.626 170.726 257.519 171.006 257.304C171.286 257.089 171.426 256.819 171.426 256.492C171.426 256.156 171.276 255.909 170.978 255.75C170.679 255.582 170.217 255.419 169.592 255.26C169.022 255.111 168.556 254.961 168.192 254.812C167.837 254.653 167.529 254.425 167.268 254.126C167.016 253.818 166.89 253.417 166.89 252.922C166.89 252.53 167.006 252.171 167.24 251.844C167.473 251.517 167.804 251.261 168.234 251.074C168.663 250.878 169.153 250.78 169.704 250.78C170.553 250.78 171.239 250.995 171.762 251.424C172.284 251.853 172.564 252.441 172.602 253.188H171.328C171.3 252.787 171.136 252.465 170.838 252.222C170.548 251.979 170.156 251.858 169.662 251.858C169.204 251.858 168.84 251.956 168.57 252.152C168.299 252.348 168.164 252.605 168.164 252.922C168.164 253.174 168.243 253.384 168.402 253.552C168.57 253.711 168.775 253.841 169.018 253.944C169.27 254.037 169.615 254.145 170.054 254.266C170.604 254.415 171.052 254.565 171.398 254.714C171.743 254.854 172.037 255.069 172.28 255.358C172.532 255.647 172.662 256.025 172.672 256.492C172.672 256.912 172.555 257.29 172.322 257.626C172.088 257.962 171.757 258.228 171.328 258.424C170.908 258.611 170.422 258.704 169.872 258.704ZM175.128 249.66C174.885 249.66 174.68 249.576 174.512 249.408C174.344 249.24 174.26 249.035 174.26 248.792C174.26 248.549 174.344 248.344 174.512 248.176C174.68 248.008 174.885 247.924 175.128 247.924C175.361 247.924 175.557 248.008 175.716 248.176C175.884 248.344 175.968 248.549 175.968 248.792C175.968 249.035 175.884 249.24 175.716 249.408C175.557 249.576 175.361 249.66 175.128 249.66ZM175.744 250.906V258.578H174.47V250.906H175.744ZM181.079 250.78C181.742 250.78 182.321 250.925 182.815 251.214C183.319 251.503 183.693 251.867 183.935 252.306V250.906H185.223V258.746C185.223 259.446 185.074 260.067 184.775 260.608C184.477 261.159 184.047 261.588 183.487 261.896C182.937 262.204 182.293 262.358 181.555 262.358C180.547 262.358 179.707 262.12 179.035 261.644C178.363 261.168 177.967 260.519 177.845 259.698H179.105C179.245 260.165 179.535 260.538 179.973 260.818C180.412 261.107 180.939 261.252 181.555 261.252C182.255 261.252 182.825 261.033 183.263 260.594C183.711 260.155 183.935 259.539 183.935 258.746V257.136C183.683 257.584 183.31 257.957 182.815 258.256C182.321 258.555 181.742 258.704 181.079 258.704C180.398 258.704 179.777 258.536 179.217 258.2C178.667 257.864 178.233 257.393 177.915 256.786C177.598 256.179 177.439 255.489 177.439 254.714C177.439 253.93 177.598 253.244 177.915 252.656C178.233 252.059 178.667 251.597 179.217 251.27C179.777 250.943 180.398 250.78 181.079 250.78ZM183.935 254.728C183.935 254.149 183.819 253.645 183.585 253.216C183.352 252.787 183.035 252.46 182.633 252.236C182.241 252.003 181.807 251.886 181.331 251.886C180.855 251.886 180.421 251.998 180.029 252.222C179.637 252.446 179.325 252.773 179.091 253.202C178.858 253.631 178.741 254.135 178.741 254.714C178.741 255.302 178.858 255.815 179.091 256.254C179.325 256.683 179.637 257.015 180.029 257.248C180.421 257.472 180.855 257.584 181.331 257.584C181.807 257.584 182.241 257.472 182.633 257.248C183.035 257.015 183.352 256.683 183.585 256.254C183.819 255.815 183.935 255.307 183.935 254.728ZM191.114 250.766C192.048 250.766 192.804 251.051 193.382 251.62C193.961 252.18 194.25 252.992 194.25 254.056V258.578H192.99V254.238C192.99 253.473 192.799 252.889 192.416 252.488C192.034 252.077 191.511 251.872 190.848 251.872C190.176 251.872 189.64 252.082 189.238 252.502C188.846 252.922 188.65 253.533 188.65 254.336V258.578H187.376V250.906H188.65V251.998C188.902 251.606 189.243 251.303 189.672 251.088C190.111 250.873 190.592 250.766 191.114 250.766ZM203.158 258.676C202.514 258.676 201.935 258.564 201.422 258.34C200.918 258.107 200.521 257.789 200.232 257.388C199.943 256.977 199.793 256.506 199.784 255.974H201.142C201.189 256.431 201.375 256.819 201.702 257.136C202.038 257.444 202.523 257.598 203.158 257.598C203.765 257.598 204.241 257.449 204.586 257.15C204.941 256.842 205.118 256.45 205.118 255.974C205.118 255.601 205.015 255.297 204.81 255.064C204.605 254.831 204.348 254.653 204.04 254.532C203.732 254.411 203.317 254.28 202.794 254.14C202.15 253.972 201.632 253.804 201.24 253.636C200.857 253.468 200.526 253.207 200.246 252.852C199.975 252.488 199.84 252.003 199.84 251.396C199.84 250.864 199.975 250.393 200.246 249.982C200.517 249.571 200.895 249.254 201.38 249.03C201.875 248.806 202.439 248.694 203.074 248.694C203.989 248.694 204.735 248.923 205.314 249.38C205.902 249.837 206.233 250.444 206.308 251.2H204.908C204.861 250.827 204.665 250.5 204.32 250.22C203.975 249.931 203.517 249.786 202.948 249.786C202.416 249.786 201.982 249.926 201.646 250.206C201.31 250.477 201.142 250.859 201.142 251.354C201.142 251.709 201.24 251.998 201.436 252.222C201.641 252.446 201.889 252.619 202.178 252.74C202.477 252.852 202.892 252.983 203.424 253.132C204.068 253.309 204.586 253.487 204.978 253.664C205.37 253.832 205.706 254.098 205.986 254.462C206.266 254.817 206.406 255.302 206.406 255.918C206.406 256.394 206.28 256.842 206.028 257.262C205.776 257.682 205.403 258.023 204.908 258.284C204.413 258.545 203.83 258.676 203.158 258.676ZM214.889 250.906L210.269 262.19H208.953L210.465 258.494L207.371 250.906H208.785L211.193 257.122L213.573 250.906H214.889ZM218.885 258.704C218.297 258.704 217.77 258.606 217.303 258.41C216.837 258.205 216.468 257.925 216.197 257.57C215.927 257.206 215.777 256.791 215.749 256.324H217.065C217.103 256.707 217.28 257.019 217.597 257.262C217.924 257.505 218.349 257.626 218.871 257.626C219.357 257.626 219.739 257.519 220.019 257.304C220.299 257.089 220.439 256.819 220.439 256.492C220.439 256.156 220.29 255.909 219.991 255.75C219.693 255.582 219.231 255.419 218.605 255.26C218.036 255.111 217.569 254.961 217.205 254.812C216.851 254.653 216.543 254.425 216.281 254.126C216.029 253.818 215.903 253.417 215.903 252.922C215.903 252.53 216.02 252.171 216.253 251.844C216.487 251.517 216.818 251.261 217.247 251.074C217.677 250.878 218.167 250.78 218.717 250.78C219.567 250.78 220.253 250.995 220.775 251.424C221.298 251.853 221.578 252.441 221.615 253.188H220.341C220.313 252.787 220.15 252.465 219.851 252.222C219.562 251.979 219.17 251.858 218.675 251.858C218.218 251.858 217.854 251.956 217.583 252.152C217.313 252.348 217.177 252.605 217.177 252.922C217.177 253.174 217.257 253.384 217.415 253.552C217.583 253.711 217.789 253.841 218.031 253.944C218.283 254.037 218.629 254.145 219.067 254.266C219.618 254.415 220.066 254.565 220.411 254.714C220.757 254.854 221.051 255.069 221.293 255.358C221.545 255.647 221.676 256.025 221.685 256.492C221.685 256.912 221.569 257.29 221.335 257.626C221.102 257.962 220.771 258.228 220.341 258.424C219.921 258.611 219.436 258.704 218.885 258.704ZM225.038 251.956V256.478C225.038 256.851 225.117 257.117 225.276 257.276C225.434 257.425 225.71 257.5 226.102 257.5H227.04V258.578H225.892C225.182 258.578 224.65 258.415 224.296 258.088C223.941 257.761 223.764 257.225 223.764 256.478V251.956H222.77V250.906H223.764V248.974H225.038V250.906H227.04V251.956H225.038ZM235.583 254.448C235.583 254.691 235.569 254.947 235.541 255.218H229.409C229.456 255.974 229.713 256.567 230.179 256.996C230.655 257.416 231.229 257.626 231.901 257.626C232.452 257.626 232.909 257.5 233.273 257.248C233.647 256.987 233.908 256.641 234.057 256.212H235.429C235.224 256.949 234.813 257.551 234.197 258.018C233.581 258.475 232.816 258.704 231.901 258.704C231.173 258.704 230.52 258.541 229.941 258.214C229.372 257.887 228.924 257.425 228.597 256.828C228.271 256.221 228.107 255.521 228.107 254.728C228.107 253.935 228.266 253.239 228.583 252.642C228.901 252.045 229.344 251.587 229.913 251.27C230.492 250.943 231.155 250.78 231.901 250.78C232.629 250.78 233.273 250.939 233.833 251.256C234.393 251.573 234.823 252.012 235.121 252.572C235.429 253.123 235.583 253.748 235.583 254.448ZM234.267 254.182C234.267 253.697 234.16 253.281 233.945 252.936C233.731 252.581 233.437 252.315 233.063 252.138C232.699 251.951 232.293 251.858 231.845 251.858C231.201 251.858 230.651 252.063 230.193 252.474C229.745 252.885 229.489 253.454 229.423 254.182H234.267ZM246.491 250.766C247.088 250.766 247.62 250.892 248.087 251.144C248.554 251.387 248.922 251.755 249.193 252.25C249.464 252.745 249.599 253.347 249.599 254.056V258.578H248.339V254.238C248.339 253.473 248.148 252.889 247.765 252.488C247.392 252.077 246.883 251.872 246.239 251.872C245.576 251.872 245.049 252.087 244.657 252.516C244.265 252.936 244.069 253.547 244.069 254.35V258.578H242.809V254.238C242.809 253.473 242.618 252.889 242.235 252.488C241.862 252.077 241.353 251.872 240.709 251.872C240.046 251.872 239.519 252.087 239.127 252.516C238.735 252.936 238.539 253.547 238.539 254.35V258.578H237.265V250.906H238.539V252.012C238.791 251.611 239.127 251.303 239.547 251.088C239.976 250.873 240.448 250.766 240.961 250.766C241.605 250.766 242.174 250.911 242.669 251.2C243.164 251.489 243.532 251.914 243.775 252.474C243.99 251.933 244.344 251.513 244.839 251.214C245.334 250.915 245.884 250.766 246.491 250.766Z" fill="#1A1A1A"/>
<path d="M608 256.262V238.809" stroke="#1A1A1A" stroke-width="0.737769"/>
<path d="M583.825 221.89V231.578H582.551V224.354L579.331 231.578H578.435L575.201 224.34V231.578H573.927V221.89H575.299L578.883 229.898L582.467 221.89H583.825ZM589.332 231.704C588.613 231.704 587.96 231.541 587.372 231.214C586.793 230.887 586.336 230.425 586 229.828C585.673 229.221 585.51 228.521 585.51 227.728C585.51 226.944 585.678 226.253 586.014 225.656C586.359 225.049 586.826 224.587 587.414 224.27C588.002 223.943 588.66 223.78 589.388 223.78C590.116 223.78 590.774 223.943 591.362 224.27C591.95 224.587 592.412 225.045 592.748 225.642C593.093 226.239 593.266 226.935 593.266 227.728C593.266 228.521 593.089 229.221 592.734 229.828C592.389 230.425 591.917 230.887 591.32 231.214C590.723 231.541 590.06 231.704 589.332 231.704ZM589.332 230.584C589.789 230.584 590.219 230.477 590.62 230.262C591.021 230.047 591.343 229.725 591.586 229.296C591.838 228.867 591.964 228.344 591.964 227.728C591.964 227.112 591.843 226.589 591.6 226.16C591.357 225.731 591.04 225.413 590.648 225.208C590.256 224.993 589.831 224.886 589.374 224.886C588.907 224.886 588.478 224.993 588.086 225.208C587.703 225.413 587.395 225.731 587.162 226.16C586.929 226.589 586.812 227.112 586.812 227.728C586.812 228.353 586.924 228.881 587.148 229.31C587.381 229.739 587.689 230.061 588.072 230.276C588.455 230.481 588.875 230.584 589.332 230.584ZM594.465 227.728C594.465 226.935 594.624 226.244 594.941 225.656C595.258 225.059 595.697 224.597 596.257 224.27C596.826 223.943 597.475 223.78 598.203 223.78C599.146 223.78 599.92 224.009 600.527 224.466C601.143 224.923 601.549 225.558 601.745 226.37H600.373C600.242 225.903 599.986 225.535 599.603 225.264C599.23 224.993 598.763 224.858 598.203 224.858C597.475 224.858 596.887 225.11 596.439 225.614C595.991 226.109 595.767 226.813 595.767 227.728C595.767 228.652 595.991 229.366 596.439 229.87C596.887 230.374 597.475 230.626 598.203 230.626C598.763 230.626 599.23 230.495 599.603 230.234C599.976 229.973 600.233 229.599 600.373 229.114H601.745C601.54 229.898 601.129 230.528 600.513 231.004C599.897 231.471 599.127 231.704 598.203 231.704C597.475 231.704 596.826 231.541 596.257 231.214C595.697 230.887 595.258 230.425 594.941 229.828C594.624 229.231 594.465 228.531 594.465 227.728ZM607.729 231.578L604.719 228.19V231.578H603.445V221.218H604.719V227.308L607.673 223.906H609.451L605.839 227.728L609.465 231.578H607.729ZM615.97 225.908V226.986H610.384V225.908H615.97ZM619.607 221.82V227.994C619.607 228.862 619.817 229.506 620.237 229.926C620.666 230.346 621.259 230.556 622.015 230.556C622.762 230.556 623.345 230.346 623.765 229.926C624.194 229.506 624.409 228.862 624.409 227.994V221.82H625.683V227.98C625.683 228.792 625.52 229.478 625.193 230.038C624.866 230.589 624.423 230.999 623.863 231.27C623.312 231.541 622.692 231.676 622.001 231.676C621.31 231.676 620.685 231.541 620.125 231.27C619.574 230.999 619.136 230.589 618.809 230.038C618.492 229.478 618.333 228.792 618.333 227.98V221.82H619.607ZM629.082 225.32C629.334 224.881 629.708 224.517 630.202 224.228C630.706 223.929 631.29 223.78 631.952 223.78C632.634 223.78 633.25 223.943 633.8 224.27C634.36 224.597 634.799 225.059 635.116 225.656C635.434 226.244 635.592 226.93 635.592 227.714C635.592 228.489 635.434 229.179 635.116 229.786C634.799 230.393 634.36 230.864 633.8 231.2C633.25 231.536 632.634 231.704 631.952 231.704C631.299 231.704 630.72 231.559 630.216 231.27C629.722 230.971 629.344 230.603 629.082 230.164V235.218H627.808V223.906H629.082V225.32ZM634.29 227.714C634.29 227.135 634.174 226.631 633.94 226.202C633.707 225.773 633.39 225.446 632.988 225.222C632.596 224.998 632.162 224.886 631.686 224.886C631.22 224.886 630.786 225.003 630.384 225.236C629.992 225.46 629.675 225.791 629.432 226.23C629.199 226.659 629.082 227.159 629.082 227.728C629.082 228.307 629.199 228.815 629.432 229.254C629.675 229.683 629.992 230.015 630.384 230.248C630.786 230.472 631.22 230.584 631.686 230.584C632.162 230.584 632.596 230.472 632.988 230.248C633.39 230.015 633.707 229.683 633.94 229.254C634.174 228.815 634.29 228.302 634.29 227.714ZM639.985 231.704C639.397 231.704 638.87 231.606 638.403 231.41C637.937 231.205 637.568 230.925 637.297 230.57C637.027 230.206 636.877 229.791 636.849 229.324H638.165C638.203 229.707 638.38 230.019 638.697 230.262C639.024 230.505 639.449 230.626 639.971 230.626C640.457 230.626 640.839 230.519 641.119 230.304C641.399 230.089 641.539 229.819 641.539 229.492C641.539 229.156 641.39 228.909 641.091 228.75C640.793 228.582 640.331 228.419 639.705 228.26C639.136 228.111 638.669 227.961 638.305 227.812C637.951 227.653 637.643 227.425 637.381 227.126C637.129 226.818 637.003 226.417 637.003 225.922C637.003 225.53 637.12 225.171 637.353 224.844C637.587 224.517 637.918 224.261 638.347 224.074C638.777 223.878 639.267 223.78 639.817 223.78C640.667 223.78 641.353 223.995 641.875 224.424C642.398 224.853 642.678 225.441 642.715 226.188H641.441C641.413 225.787 641.25 225.465 640.951 225.222C640.662 224.979 640.27 224.858 639.775 224.858C639.318 224.858 638.954 224.956 638.683 225.152C638.413 225.348 638.277 225.605 638.277 225.922C638.277 226.174 638.357 226.384 638.515 226.552C638.683 226.711 638.889 226.841 639.131 226.944C639.383 227.037 639.729 227.145 640.167 227.266C640.718 227.415 641.166 227.565 641.511 227.714C641.857 227.854 642.151 228.069 642.393 228.358C642.645 228.647 642.776 229.025 642.785 229.492C642.785 229.912 642.669 230.29 642.435 230.626C642.202 230.962 641.871 231.228 641.441 231.424C641.021 231.611 640.536 231.704 639.985 231.704Z" fill="#1A1A1A"/>
<path d="M349.025 252.835V236.809" stroke="#1A1A1A" stroke-width="0.737769"/>
<path d="M321.533 219.89V229.578H320.259V222.354L317.039 229.578H316.143L312.909 222.34V229.578H311.635V219.89H313.007L316.591 227.898L320.175 219.89H321.533ZM327.039 229.704C326.321 229.704 325.667 229.541 325.079 229.214C324.501 228.887 324.043 228.425 323.707 227.828C323.381 227.221 323.217 226.521 323.217 225.728C323.217 224.944 323.385 224.253 323.721 223.656C324.067 223.049 324.533 222.587 325.121 222.27C325.709 221.943 326.367 221.78 327.095 221.78C327.823 221.78 328.481 221.943 329.069 222.27C329.657 222.587 330.119 223.045 330.455 223.642C330.801 224.239 330.973 224.935 330.973 225.728C330.973 226.521 330.796 227.221 330.441 227.828C330.096 228.425 329.625 228.887 329.027 229.214C328.43 229.541 327.767 229.704 327.039 229.704ZM327.039 228.584C327.497 228.584 327.926 228.477 328.327 228.262C328.729 228.047 329.051 227.725 329.293 227.296C329.545 226.867 329.671 226.344 329.671 225.728C329.671 225.112 329.55 224.589 329.307 224.16C329.065 223.731 328.747 223.413 328.355 223.208C327.963 222.993 327.539 222.886 327.081 222.886C326.615 222.886 326.185 222.993 325.793 223.208C325.411 223.413 325.103 223.731 324.869 224.16C324.636 224.589 324.519 225.112 324.519 225.728C324.519 226.353 324.631 226.881 324.855 227.31C325.089 227.739 325.397 228.061 325.779 228.276C326.162 228.481 326.582 228.584 327.039 228.584ZM332.172 225.728C332.172 224.935 332.331 224.244 332.648 223.656C332.966 223.059 333.404 222.597 333.964 222.27C334.534 221.943 335.182 221.78 335.91 221.78C336.853 221.78 337.628 222.009 338.234 222.466C338.85 222.923 339.256 223.558 339.452 224.37H338.08C337.95 223.903 337.693 223.535 337.31 223.264C336.937 222.993 336.47 222.858 335.91 222.858C335.182 222.858 334.594 223.11 334.146 223.614C333.698 224.109 333.474 224.813 333.474 225.728C333.474 226.652 333.698 227.366 334.146 227.87C334.594 228.374 335.182 228.626 335.91 228.626C336.47 228.626 336.937 228.495 337.31 228.234C337.684 227.973 337.94 227.599 338.08 227.114H339.452C339.247 227.898 338.836 228.528 338.22 229.004C337.604 229.471 336.834 229.704 335.91 229.704C335.182 229.704 334.534 229.541 333.964 229.214C333.404 228.887 332.966 228.425 332.648 227.828C332.331 227.231 332.172 226.531 332.172 225.728ZM345.436 229.578L342.426 226.19V229.578H341.152V219.218H342.426V225.308L345.38 221.906H347.158L343.546 225.728L347.172 229.578H345.436ZM353.677 223.908V224.986H348.091V223.908H353.677ZM357.314 219.82V225.994C357.314 226.862 357.524 227.506 357.944 227.926C358.374 228.346 358.966 228.556 359.722 228.556C360.469 228.556 361.052 228.346 361.472 227.926C361.902 227.506 362.116 226.862 362.116 225.994V219.82H363.39V225.98C363.39 226.792 363.227 227.478 362.9 228.038C362.574 228.589 362.13 228.999 361.57 229.27C361.02 229.541 360.399 229.676 359.708 229.676C359.018 229.676 358.392 229.541 357.832 229.27C357.282 228.999 356.843 228.589 356.516 228.038C356.199 227.478 356.04 226.792 356.04 225.98V219.82H357.314ZM366.79 223.32C367.042 222.881 367.415 222.517 367.91 222.228C368.414 221.929 368.997 221.78 369.66 221.78C370.341 221.78 370.957 221.943 371.508 222.27C372.068 222.597 372.506 223.059 372.824 223.656C373.141 224.244 373.3 224.93 373.3 225.714C373.3 226.489 373.141 227.179 372.824 227.786C372.506 228.393 372.068 228.864 371.508 229.2C370.957 229.536 370.341 229.704 369.66 229.704C369.006 229.704 368.428 229.559 367.924 229.27C367.429 228.971 367.051 228.603 366.79 228.164V233.218H365.516V221.906H366.79V223.32ZM371.998 225.714C371.998 225.135 371.881 224.631 371.648 224.202C371.414 223.773 371.097 223.446 370.696 223.222C370.304 222.998 369.87 222.886 369.394 222.886C368.927 222.886 368.493 223.003 368.092 223.236C367.7 223.46 367.382 223.791 367.14 224.23C366.906 224.659 366.79 225.159 366.79 225.728C366.79 226.307 366.906 226.815 367.14 227.254C367.382 227.683 367.7 228.015 368.092 228.248C368.493 228.472 368.927 228.584 369.394 228.584C369.87 228.584 370.304 228.472 370.696 228.248C371.097 228.015 371.414 227.683 371.648 227.254C371.881 226.815 371.998 226.302 371.998 225.714ZM377.692 229.704C377.104 229.704 376.577 229.606 376.11 229.41C375.644 229.205 375.275 228.925 375.004 228.57C374.734 228.206 374.584 227.791 374.556 227.324H375.872C375.91 227.707 376.087 228.019 376.404 228.262C376.731 228.505 377.156 228.626 377.678 228.626C378.164 228.626 378.546 228.519 378.826 228.304C379.106 228.089 379.246 227.819 379.246 227.492C379.246 227.156 379.097 226.909 378.798 226.75C378.5 226.582 378.038 226.419 377.412 226.26C376.843 226.111 376.376 225.961 376.012 225.812C375.658 225.653 375.35 225.425 375.088 225.126C374.836 224.818 374.71 224.417 374.71 223.922C374.71 223.53 374.827 223.171 375.06 222.844C375.294 222.517 375.625 222.261 376.054 222.074C376.484 221.878 376.974 221.78 377.524 221.78C378.374 221.78 379.06 221.995 379.582 222.424C380.105 222.853 380.385 223.441 380.422 224.188H379.148C379.12 223.787 378.957 223.465 378.658 223.222C378.369 222.979 377.977 222.858 377.482 222.858C377.025 222.858 376.661 222.956 376.39 223.152C376.12 223.348 375.984 223.605 375.984 223.922C375.984 224.174 376.064 224.384 376.222 224.552C376.39 224.711 376.596 224.841 376.838 224.944C377.09 225.037 377.436 225.145 377.874 225.266C378.425 225.415 378.873 225.565 379.218 225.714C379.564 225.854 379.858 226.069 380.1 226.358C380.352 226.647 380.483 227.025 380.492 227.492C380.492 227.912 380.376 228.29 380.142 228.626C379.909 228.962 379.578 229.228 379.148 229.424C378.728 229.611 378.243 229.704 377.692 229.704Z" fill="#1A1A1A"/>
<path d="M1.32471 559.389H1200" stroke="#1A1A1A" stroke-width="0.737769"/>
<path d="M3.34652 574.935V587.241H1.32799V574.935H3.34652ZM17.8069 577.326C18.5742 577.326 19.2588 577.485 19.8608 577.804C20.4747 578.122 20.9527 578.595 21.2951 579.22C21.6492 579.846 21.8263 580.601 21.8263 581.487V587.241H19.8254V581.788C19.8254 580.914 19.6071 580.247 19.1703 579.787C18.7335 579.315 18.1374 579.079 17.3819 579.079C16.6265 579.079 16.0244 579.315 15.5759 579.787C15.1391 580.247 14.9207 580.914 14.9207 581.788V587.241H12.9199V581.788C12.9199 580.914 12.7015 580.247 12.2648 579.787C11.828 579.315 11.2319 579.079 10.4764 579.079C9.72094 579.079 9.11892 579.315 8.67036 579.787C8.2336 580.247 8.01522 580.914 8.01522 581.788V587.241H5.99668V577.485H8.01522V578.6C8.34574 578.199 8.76479 577.886 9.27238 577.662C9.77996 577.438 10.323 577.326 10.9014 577.326C11.6805 577.326 12.3769 577.491 12.9907 577.821C13.6046 578.152 14.0767 578.63 14.4073 579.256C14.7024 578.665 15.1627 578.199 15.7884 577.857C16.414 577.503 17.0868 577.326 17.8069 577.326ZM26.4133 578.919C26.7557 578.471 27.2219 578.093 27.8122 577.786C28.4024 577.479 29.0693 577.326 29.813 577.326C30.6629 577.326 31.4361 577.538 32.1325 577.963C32.8408 578.376 33.3956 578.96 33.7969 579.716C34.1983 580.471 34.399 581.339 34.399 582.319C34.399 583.299 34.1983 584.178 33.7969 584.957C33.3956 585.724 32.8408 586.326 32.1325 586.763C31.4361 587.188 30.6629 587.401 29.813 587.401C29.0693 587.401 28.4083 587.253 27.8299 586.958C27.2515 586.651 26.7793 586.273 26.4133 585.825V591.88H24.3948V577.485H26.4133V578.919ZM32.345 582.319C32.345 581.646 32.2034 581.068 31.9201 580.584C31.6486 580.088 31.2826 579.716 30.8223 579.468C30.3737 579.208 29.8897 579.079 29.3703 579.079C28.8627 579.079 28.3788 579.208 27.9184 579.468C27.4698 579.728 27.1039 580.106 26.8206 580.601C26.5491 581.097 26.4133 581.681 26.4133 582.354C26.4133 583.027 26.5491 583.617 26.8206 584.125C27.1039 584.621 27.4698 584.998 27.9184 585.258C28.3788 585.518 28.8627 585.648 29.3703 585.648C29.8897 585.648 30.3737 585.518 30.8223 585.258C31.2826 584.987 31.6486 584.597 31.9201 584.089C32.2034 583.582 32.345 582.992 32.345 582.319ZM38.4136 574.138V587.241H36.3951V574.138H38.4136ZM50.0056 582.124C50.0056 582.49 49.9819 582.82 49.9347 583.116H42.4803C42.5393 583.895 42.8285 584.52 43.3479 584.992C43.8673 585.465 44.5047 585.701 45.2602 585.701C46.3462 585.701 47.1135 585.246 47.5621 584.337H49.74C49.4448 585.234 48.9078 585.972 48.1287 586.551C47.3614 587.117 46.4052 587.401 45.2602 587.401C44.3277 587.401 43.4896 587.194 42.7459 586.781C42.014 586.356 41.4356 585.766 41.0107 585.01C40.5975 584.243 40.3909 583.358 40.3909 582.354C40.3909 581.351 40.5916 580.471 40.993 579.716C41.4061 578.949 41.9786 578.358 42.7105 577.945C43.4542 577.532 44.3041 577.326 45.2602 577.326C46.181 577.326 47.0014 577.526 47.7214 577.928C48.4415 578.329 49.0022 578.896 49.4035 579.627C49.8049 580.347 50.0056 581.18 50.0056 582.124ZM47.8985 581.487C47.8867 580.743 47.6211 580.147 47.1017 579.698C46.5823 579.25 45.939 579.025 45.1717 579.025C44.4752 579.025 43.8791 579.25 43.3833 579.698C42.8876 580.135 42.5924 580.731 42.498 581.487H47.8985ZM63.8022 577.326C64.5695 577.326 65.2541 577.485 65.8562 577.804C66.47 578.122 66.9481 578.595 67.2904 579.22C67.6445 579.846 67.8216 580.601 67.8216 581.487V587.241H65.8207V581.788C65.8207 580.914 65.6024 580.247 65.1656 579.787C64.7288 579.315 64.1327 579.079 63.3773 579.079C62.6218 579.079 62.0198 579.315 61.5712 579.787C61.1344 580.247 60.9161 580.914 60.9161 581.788V587.241H58.9152V581.788C58.9152 580.914 58.6968 580.247 58.2601 579.787C57.8233 579.315 57.2272 579.079 56.4717 579.079C55.7163 579.079 55.1142 579.315 54.6657 579.787C54.2289 580.247 54.0105 580.914 54.0105 581.788V587.241H51.992V577.485H54.0105V578.6C54.3411 578.199 54.7601 577.886 55.2677 577.662C55.7753 577.438 56.3183 577.326 56.8967 577.326C57.6758 577.326 58.3722 577.491 58.986 577.821C59.5999 578.152 60.072 578.63 60.4026 579.256C60.6977 578.665 61.158 578.199 61.7837 577.857C62.4093 577.503 63.0821 577.326 63.8022 577.326ZM79.3319 582.124C79.3319 582.49 79.3083 582.82 79.2611 583.116H71.8066C71.8657 583.895 72.1549 584.52 72.6743 584.992C73.1936 585.465 73.8311 585.701 74.5866 585.701C75.6725 585.701 76.4398 585.246 76.8884 584.337H79.0663C78.7712 585.234 78.2341 585.972 77.455 586.551C76.6877 587.117 75.7316 587.401 74.5866 587.401C73.654 587.401 72.8159 587.194 72.0722 586.781C71.3404 586.356 70.762 585.766 70.337 585.01C69.9238 584.243 69.7173 583.358 69.7173 582.354C69.7173 581.351 69.9179 580.471 70.3193 579.716C70.7324 578.949 71.305 578.358 72.0368 577.945C72.7805 577.532 73.6304 577.326 74.5866 577.326C75.5073 577.326 76.3277 577.526 77.0478 577.928C77.7678 578.329 78.3285 578.896 78.7299 579.627C79.1312 580.347 79.3319 581.18 79.3319 582.124ZM77.2248 581.487C77.213 580.743 76.9474 580.147 76.428 579.698C75.9086 579.25 75.2653 579.025 74.498 579.025C73.8016 579.025 73.2054 579.25 72.7097 579.698C72.2139 580.135 71.9188 580.731 71.8243 581.487H77.2248ZM86.2407 577.326C87.008 577.326 87.6927 577.485 88.2947 577.804C88.9085 578.122 89.3866 578.595 89.7289 579.22C90.0712 579.846 90.2424 580.601 90.2424 581.487V587.241H88.2416V581.788C88.2416 580.914 88.0232 580.247 87.5864 579.787C87.1497 579.315 86.5535 579.079 85.7981 579.079C85.0426 579.079 84.4406 579.315 83.992 579.787C83.5553 580.247 83.3369 580.914 83.3369 581.788V587.241H81.3183V577.485H83.3369V578.6C83.6674 578.199 84.0864 577.886 84.594 577.662C85.1134 577.438 85.6623 577.326 86.2407 577.326ZM95.1721 579.132V584.532C95.1721 584.898 95.2547 585.164 95.42 585.329C95.5971 585.482 95.8922 585.559 96.3053 585.559H97.5448V587.241H95.9512C95.0423 587.241 94.3458 587.029 93.8618 586.604C93.3779 586.179 93.1359 585.488 93.1359 584.532V579.132H91.985V577.485H93.1359V575.059H95.1721V577.485H97.5448V579.132H95.1721ZM98.7324 582.319C98.7324 581.339 98.933 580.471 99.3344 579.716C99.7475 578.96 100.302 578.376 100.999 577.963C101.707 577.538 102.486 577.326 103.336 577.326C104.103 577.326 104.77 577.479 105.337 577.786C105.915 578.081 106.376 578.453 106.718 578.901V577.485H108.754V587.241H106.718V585.789C106.376 586.25 105.909 586.633 105.319 586.94C104.729 587.247 104.056 587.401 103.301 587.401C102.463 587.401 101.695 587.188 100.999 586.763C100.302 586.326 99.7475 585.724 99.3344 584.957C98.933 584.178 98.7324 583.299 98.7324 582.319ZM106.718 582.354C106.718 581.681 106.576 581.097 106.293 580.601C106.022 580.106 105.661 579.728 105.213 579.468C104.764 579.208 104.28 579.079 103.761 579.079C103.242 579.079 102.758 579.208 102.309 579.468C101.861 579.716 101.495 580.088 101.211 580.584C100.94 581.068 100.804 581.646 100.804 582.319C100.804 582.992 100.94 583.582 101.211 584.089C101.495 584.597 101.861 584.987 102.309 585.258C102.769 585.518 103.253 585.648 103.761 585.648C104.28 585.648 104.764 585.518 105.213 585.258C105.661 584.998 106.022 584.621 106.293 584.125C106.576 583.617 106.718 583.027 106.718 582.354ZM113.76 579.132V584.532C113.76 584.898 113.843 585.164 114.008 585.329C114.185 585.482 114.481 585.559 114.894 585.559H116.133V587.241H114.54C113.631 587.241 112.934 587.029 112.45 586.604C111.966 586.179 111.724 585.488 111.724 584.532V579.132H110.573V577.485H111.724V575.059H113.76V577.485H116.133V579.132H113.76ZM119.021 576.192C118.655 576.192 118.348 576.068 118.1 575.821C117.852 575.573 117.728 575.266 117.728 574.9C117.728 574.534 117.852 574.227 118.1 573.979C118.348 573.731 118.655 573.607 119.021 573.607C119.375 573.607 119.676 573.731 119.924 573.979C120.171 574.227 120.295 574.534 120.295 574.9C120.295 575.266 120.171 575.573 119.924 575.821C119.676 576.068 119.375 576.192 119.021 576.192ZM120.012 577.485V587.241H117.994V577.485H120.012ZM126.894 587.401C125.973 587.401 125.141 587.194 124.397 586.781C123.654 586.356 123.069 585.766 122.645 585.01C122.22 584.243 122.007 583.358 122.007 582.354C122.007 581.363 122.225 580.483 122.662 579.716C123.099 578.949 123.695 578.358 124.451 577.945C125.206 577.532 126.05 577.326 126.983 577.326C127.915 577.326 128.759 577.532 129.515 577.945C130.27 578.358 130.866 578.949 131.303 579.716C131.74 580.483 131.958 581.363 131.958 582.354C131.958 583.346 131.734 584.225 131.285 584.992C130.837 585.76 130.223 586.356 129.444 586.781C128.677 587.194 127.827 587.401 126.894 587.401ZM126.894 585.648C127.413 585.648 127.897 585.524 128.346 585.276C128.806 585.028 129.178 584.656 129.462 584.16C129.745 583.665 129.886 583.062 129.886 582.354C129.886 581.646 129.751 581.05 129.479 580.566C129.208 580.07 128.848 579.698 128.399 579.45C127.951 579.202 127.467 579.079 126.947 579.079C126.428 579.079 125.944 579.202 125.495 579.45C125.059 579.698 124.71 580.07 124.451 580.566C124.191 581.05 124.061 581.646 124.061 582.354C124.061 583.405 124.327 584.219 124.858 584.798C125.401 585.364 126.08 585.648 126.894 585.648ZM138.876 577.326C139.643 577.326 140.328 577.485 140.93 577.804C141.544 578.122 142.022 578.595 142.364 579.22C142.706 579.846 142.878 580.601 142.878 581.487V587.241H140.877V581.788C140.877 580.914 140.658 580.247 140.222 579.787C139.785 579.315 139.189 579.079 138.433 579.079C137.678 579.079 137.076 579.315 136.627 579.787C136.19 580.247 135.972 580.914 135.972 581.788V587.241H133.954V577.485H135.972V578.6C136.303 578.199 136.722 577.886 137.229 577.662C137.749 577.438 138.298 577.326 138.876 577.326Z" fill="#1A1A1A"/>
<path d="M314.067 501.346C195.018 527.932 45.033 559.388 45.033 559.388H968.675L901.29 499.461C874.991 476.073 841.022 463.153 805.828 463.153H784.301C744.171 463.153 704.238 468.76 665.66 479.812C656.698 482.379 647.16 481.953 638.186 479.429C618.419 473.868 579.087 465.317 532.649 468.643C530.026 468.83 527.395 468.982 524.761 469.104C453.606 472.388 383.586 485.822 314.067 501.346Z" fill="#FFFFFF" stroke="#1A1A1A" stroke-width="0.737769" stroke-linejoin="round"/>
<path d="M341.722 495.735V442.82" stroke="#1A1A1A" stroke-width="0.737769"/>
<path d="M306.964 425.832C308.028 425.832 308.947 426.033 309.722 426.434C310.506 426.826 311.103 427.391 311.514 428.128C311.934 428.865 312.144 429.733 312.144 430.732C312.144 431.731 311.934 432.599 311.514 433.336C311.103 434.064 310.506 434.624 309.722 435.016C308.947 435.399 308.028 435.59 306.964 435.59H303.926V425.832H306.964ZM306.964 434.54C308.224 434.54 309.185 434.209 309.848 433.546C310.51 432.874 310.842 431.936 310.842 430.732C310.842 429.519 310.506 428.571 309.834 427.89C309.171 427.209 308.214 426.868 306.964 426.868H305.2V434.54H306.964ZM320.824 431.46C320.824 431.703 320.81 431.959 320.782 432.23H314.65C314.697 432.986 314.953 433.579 315.42 434.008C315.896 434.428 316.47 434.638 317.142 434.638C317.693 434.638 318.15 434.512 318.514 434.26C318.887 433.999 319.149 433.653 319.298 433.224H320.67C320.465 433.961 320.054 434.563 319.438 435.03C318.822 435.487 318.057 435.716 317.142 435.716C316.414 435.716 315.761 435.553 315.182 435.226C314.613 434.899 314.165 434.437 313.838 433.84C313.511 433.233 313.348 432.533 313.348 431.74C313.348 430.947 313.507 430.251 313.824 429.654C314.141 429.057 314.585 428.599 315.154 428.282C315.733 427.955 316.395 427.792 317.142 427.792C317.87 427.792 318.514 427.951 319.074 428.268C319.634 428.585 320.063 429.024 320.362 429.584C320.67 430.135 320.824 430.76 320.824 431.46ZM319.508 431.194C319.508 430.709 319.401 430.293 319.186 429.948C318.971 429.593 318.677 429.327 318.304 429.15C317.94 428.963 317.534 428.87 317.086 428.87C316.442 428.87 315.891 429.075 315.434 429.486C314.986 429.897 314.729 430.466 314.664 431.194H319.508ZM325.362 434.414L327.742 427.918H329.1L326.09 435.59H324.606L321.596 427.918H322.968L325.362 434.414ZM337.353 431.46C337.353 431.703 337.339 431.959 337.311 432.23H331.179C331.226 432.986 331.483 433.579 331.949 434.008C332.425 434.428 332.999 434.638 333.671 434.638C334.222 434.638 334.679 434.512 335.043 434.26C335.417 433.999 335.678 433.653 335.827 433.224H337.199C336.994 433.961 336.583 434.563 335.967 435.03C335.351 435.487 334.586 435.716 333.671 435.716C332.943 435.716 332.29 435.553 331.711 435.226C331.142 434.899 330.694 434.437 330.367 433.84C330.041 433.233 329.877 432.533 329.877 431.74C329.877 430.947 330.036 430.251 330.353 429.654C330.671 429.057 331.114 428.599 331.683 428.282C332.262 427.955 332.925 427.792 333.671 427.792C334.399 427.792 335.043 427.951 335.603 428.268C336.163 428.585 336.593 429.024 336.891 429.584C337.199 430.135 337.353 430.76 337.353 431.46ZM336.037 431.194C336.037 430.709 335.93 430.293 335.715 429.948C335.501 429.593 335.207 429.327 334.833 429.15C334.469 428.963 334.063 428.87 333.615 428.87C332.971 428.87 332.421 429.075 331.963 429.486C331.515 429.897 331.259 430.466 331.193 431.194H336.037ZM340.309 425.23V435.59H339.035V425.23H340.309ZM345.826 435.716C345.108 435.716 344.454 435.553 343.866 435.226C343.288 434.899 342.83 434.437 342.494 433.84C342.168 433.233 342.004 432.533 342.004 431.74C342.004 430.956 342.172 430.265 342.508 429.668C342.854 429.061 343.32 428.599 343.908 428.282C344.496 427.955 345.154 427.792 345.882 427.792C346.61 427.792 347.268 427.955 347.856 428.282C348.444 428.599 348.906 429.057 349.242 429.654C349.588 430.251 349.76 430.947 349.76 431.74C349.76 432.533 349.583 433.233 349.228 433.84C348.883 434.437 348.412 434.899 347.814 435.226C347.217 435.553 346.554 435.716 345.826 435.716ZM345.826 434.596C346.284 434.596 346.713 434.489 347.114 434.274C347.516 434.059 347.838 433.737 348.08 433.308C348.332 432.879 348.458 432.356 348.458 431.74C348.458 431.124 348.337 430.601 348.094 430.172C347.852 429.743 347.534 429.425 347.142 429.22C346.75 429.005 346.326 428.898 345.868 428.898C345.402 428.898 344.972 429.005 344.58 429.22C344.198 429.425 343.89 429.743 343.656 430.172C343.423 430.601 343.306 431.124 343.306 431.74C343.306 432.365 343.418 432.893 343.642 433.322C343.876 433.751 344.184 434.073 344.566 434.288C344.949 434.493 345.369 434.596 345.826 434.596ZM352.709 429.332C352.961 428.893 353.335 428.529 353.829 428.24C354.333 427.941 354.917 427.792 355.579 427.792C356.261 427.792 356.877 427.955 357.427 428.282C357.987 428.609 358.426 429.071 358.743 429.668C359.061 430.256 359.219 430.942 359.219 431.726C359.219 432.501 359.061 433.191 358.743 433.798C358.426 434.405 357.987 434.876 357.427 435.212C356.877 435.548 356.261 435.716 355.579 435.716C354.926 435.716 354.347 435.571 353.843 435.282C353.349 434.983 352.971 434.615 352.709 434.176V439.23H351.435V427.918H352.709V429.332ZM357.917 431.726C357.917 431.147 357.801 430.643 357.567 430.214C357.334 429.785 357.017 429.458 356.615 429.234C356.223 429.01 355.789 428.898 355.313 428.898C354.847 428.898 354.413 429.015 354.011 429.248C353.619 429.472 353.302 429.803 353.059 430.242C352.826 430.671 352.709 431.171 352.709 431.74C352.709 432.319 352.826 432.827 353.059 433.266C353.302 433.695 353.619 434.027 354.011 434.26C354.413 434.484 354.847 434.596 355.313 434.596C355.789 434.596 356.223 434.484 356.615 434.26C357.017 434.027 357.334 433.695 357.567 433.266C357.801 432.827 357.917 432.314 357.917 431.726ZM370.122 427.778C370.72 427.778 371.252 427.904 371.718 428.156C372.185 428.399 372.554 428.767 372.824 429.262C373.095 429.757 373.23 430.359 373.23 431.068V435.59H371.97V431.25C371.97 430.485 371.779 429.901 371.396 429.5C371.023 429.089 370.514 428.884 369.87 428.884C369.208 428.884 368.68 429.099 368.288 429.528C367.896 429.948 367.7 430.559 367.7 431.362V435.59H366.44V431.25C366.44 430.485 366.249 429.901 365.866 429.5C365.493 429.089 364.984 428.884 364.34 428.884C363.678 428.884 363.15 429.099 362.758 429.528C362.366 429.948 362.17 430.559 362.17 431.362V435.59H360.896V427.918H362.17V429.024C362.422 428.623 362.758 428.315 363.178 428.1C363.608 427.885 364.079 427.778 364.592 427.778C365.236 427.778 365.806 427.923 366.3 428.212C366.795 428.501 367.164 428.926 367.406 429.486C367.621 428.945 367.976 428.525 368.47 428.226C368.965 427.927 369.516 427.778 370.122 427.778ZM382.32 431.46C382.32 431.703 382.306 431.959 382.278 432.23H376.146C376.193 432.986 376.449 433.579 376.916 434.008C377.392 434.428 377.966 434.638 378.638 434.638C379.189 434.638 379.646 434.512 380.01 434.26C380.383 433.999 380.645 433.653 380.794 433.224H382.166C381.961 433.961 381.55 434.563 380.934 435.03C380.318 435.487 379.553 435.716 378.638 435.716C377.91 435.716 377.257 435.553 376.678 435.226C376.109 434.899 375.661 434.437 375.334 433.84C375.007 433.233 374.844 432.533 374.844 431.74C374.844 430.947 375.003 430.251 375.32 429.654C375.637 429.057 376.081 428.599 376.65 428.282C377.229 427.955 377.891 427.792 378.638 427.792C379.366 427.792 380.01 427.951 380.57 428.268C381.13 428.585 381.559 429.024 381.858 429.584C382.166 430.135 382.32 430.76 382.32 431.46ZM381.004 431.194C381.004 430.709 380.897 430.293 380.682 429.948C380.467 429.593 380.173 429.327 379.8 429.15C379.436 428.963 379.03 428.87 378.582 428.87C377.938 428.87 377.387 429.075 376.93 429.486C376.482 429.897 376.225 430.466 376.16 431.194H381.004ZM387.74 427.778C388.673 427.778 389.429 428.063 390.008 428.632C390.586 429.192 390.876 430.004 390.876 431.068V435.59H389.616V431.25C389.616 430.485 389.424 429.901 389.042 429.5C388.659 429.089 388.136 428.884 387.474 428.884C386.802 428.884 386.265 429.094 385.864 429.514C385.472 429.934 385.276 430.545 385.276 431.348V435.59H384.002V427.918H385.276V429.01C385.528 428.618 385.868 428.315 386.298 428.1C386.736 427.885 387.217 427.778 387.74 427.778ZM394.511 428.968V433.49C394.511 433.863 394.59 434.129 394.749 434.288C394.907 434.437 395.183 434.512 395.575 434.512H396.513V435.59H395.365C394.655 435.59 394.123 435.427 393.769 435.1C393.414 434.773 393.237 434.237 393.237 433.49V428.968H392.243V427.918H393.237V425.986H394.511V427.918H396.513V428.968H394.511Z" fill="#1A1A1A"/>
<path d="M815.894 463.478V442.82" stroke="#1A1A1A" stroke-width="0.737769"/>
<path d="M781.136 425.832C782.2 425.832 783.119 426.033 783.894 426.434C784.678 426.826 785.275 427.391 785.686 428.128C786.106 428.865 786.316 429.733 786.316 430.732C786.316 431.731 786.106 432.599 785.686 433.336C785.275 434.064 784.678 434.624 783.894 435.016C783.119 435.399 782.2 435.59 781.136 435.59H778.098V425.832H781.136ZM781.136 434.54C782.396 434.54 783.357 434.209 784.02 433.546C784.682 432.874 785.014 431.936 785.014 430.732C785.014 429.519 784.678 428.571 784.006 427.89C783.343 427.209 782.386 426.868 781.136 426.868H779.372V434.54H781.136ZM794.996 431.46C794.996 431.703 794.982 431.959 794.954 432.23H788.822C788.869 432.986 789.126 433.579 789.592 434.008C790.068 434.428 790.642 434.638 791.314 434.638C791.865 434.638 792.322 434.512 792.686 434.26C793.06 433.999 793.321 433.653 793.47 433.224H794.842C794.637 433.961 794.226 434.563 793.61 435.03C792.994 435.487 792.229 435.716 791.314 435.716C790.586 435.716 789.933 435.553 789.354 435.226C788.785 434.899 788.337 434.437 788.01 433.84C787.684 433.233 787.52 432.533 787.52 431.74C787.52 430.947 787.679 430.251 787.996 429.654C788.314 429.057 788.757 428.599 789.326 428.282C789.905 427.955 790.568 427.792 791.314 427.792C792.042 427.792 792.686 427.951 793.246 428.268C793.806 428.585 794.236 429.024 794.534 429.584C794.842 430.135 794.996 430.76 794.996 431.46ZM793.68 431.194C793.68 430.709 793.573 430.293 793.358 429.948C793.144 429.593 792.85 429.327 792.476 429.15C792.112 428.963 791.706 428.87 791.258 428.87C790.614 428.87 790.064 429.075 789.606 429.486C789.158 429.897 788.902 430.466 788.836 431.194H793.68ZM799.534 434.414L801.914 427.918H803.272L800.262 435.59H798.778L795.768 427.918H797.14L799.534 434.414ZM811.526 431.46C811.526 431.703 811.512 431.959 811.484 432.23H805.352C805.398 432.986 805.655 433.579 806.122 434.008C806.598 434.428 807.172 434.638 807.844 434.638C808.394 434.638 808.852 434.512 809.216 434.26C809.589 433.999 809.85 433.653 810 433.224H811.372C811.166 433.961 810.756 434.563 810.14 435.03C809.524 435.487 808.758 435.716 807.844 435.716C807.116 435.716 806.462 435.553 805.884 435.226C805.314 434.899 804.866 434.437 804.54 433.84C804.213 433.233 804.05 432.533 804.05 431.74C804.05 430.947 804.208 430.251 804.526 429.654C804.843 429.057 805.286 428.599 805.856 428.282C806.434 427.955 807.097 427.792 807.844 427.792C808.572 427.792 809.216 427.951 809.776 428.268C810.336 428.585 810.765 429.024 811.064 429.584C811.372 430.135 811.526 430.76 811.526 431.46ZM810.21 431.194C810.21 430.709 810.102 430.293 809.888 429.948C809.673 429.593 809.379 429.327 809.006 429.15C808.642 428.963 808.236 428.87 807.788 428.87C807.144 428.87 806.593 429.075 806.136 429.486C805.688 429.897 805.431 430.466 805.366 431.194H810.21ZM814.481 425.23V435.59H813.207V425.23H814.481ZM819.998 435.716C819.28 435.716 818.626 435.553 818.038 435.226C817.46 434.899 817.002 434.437 816.666 433.84C816.34 433.233 816.176 432.533 816.176 431.74C816.176 430.956 816.344 430.265 816.68 429.668C817.026 429.061 817.492 428.599 818.08 428.282C818.668 427.955 819.326 427.792 820.054 427.792C820.782 427.792 821.44 427.955 822.028 428.282C822.616 428.599 823.078 429.057 823.414 429.654C823.76 430.251 823.932 430.947 823.932 431.74C823.932 432.533 823.755 433.233 823.4 433.84C823.055 434.437 822.584 434.899 821.986 435.226C821.389 435.553 820.726 435.716 819.998 435.716ZM819.998 434.596C820.456 434.596 820.885 434.489 821.286 434.274C821.688 434.059 822.01 433.737 822.252 433.308C822.504 432.879 822.63 432.356 822.63 431.74C822.63 431.124 822.509 430.601 822.266 430.172C822.024 429.743 821.706 429.425 821.314 429.22C820.922 429.005 820.498 428.898 820.04 428.898C819.574 428.898 819.144 429.005 818.752 429.22C818.37 429.425 818.062 429.743 817.828 430.172C817.595 430.601 817.478 431.124 817.478 431.74C817.478 432.365 817.59 432.893 817.814 433.322C818.048 433.751 818.356 434.073 818.738 434.288C819.121 434.493 819.541 434.596 819.998 434.596ZM826.882 429.332C827.134 428.893 827.507 428.529 828.002 428.24C828.506 427.941 829.089 427.792 829.752 427.792C830.433 427.792 831.049 427.955 831.6 428.282C832.16 428.609 832.598 429.071 832.916 429.668C833.233 430.256 833.392 430.942 833.392 431.726C833.392 432.501 833.233 433.191 832.916 433.798C832.598 434.405 832.16 434.876 831.6 435.212C831.049 435.548 830.433 435.716 829.752 435.716C829.098 435.716 828.52 435.571 828.016 435.282C827.521 434.983 827.143 434.615 826.882 434.176V439.23H825.608V427.918H826.882V429.332ZM832.09 431.726C832.09 431.147 831.973 430.643 831.74 430.214C831.506 429.785 831.189 429.458 830.788 429.234C830.396 429.01 829.962 428.898 829.486 428.898C829.019 428.898 828.585 429.015 828.184 429.248C827.792 429.472 827.474 429.803 827.232 430.242C826.998 430.671 826.882 431.171 826.882 431.74C826.882 432.319 826.998 432.827 827.232 433.266C827.474 433.695 827.792 434.027 828.184 434.26C828.585 434.484 829.019 434.596 829.486 434.596C829.962 434.596 830.396 434.484 830.788 434.26C831.189 434.027 831.506 433.695 831.74 433.266C831.973 432.827 832.09 432.314 832.09 431.726ZM844.294 427.778C844.892 427.778 845.424 427.904 845.89 428.156C846.357 428.399 846.726 428.767 846.996 429.262C847.267 429.757 847.402 430.359 847.402 431.068V435.59H846.142V431.25C846.142 430.485 845.951 429.901 845.568 429.5C845.195 429.089 844.686 428.884 844.042 428.884C843.38 428.884 842.852 429.099 842.46 429.528C842.068 429.948 841.872 430.559 841.872 431.362V435.59H840.612V431.25C840.612 430.485 840.421 429.901 840.038 429.5C839.665 429.089 839.156 428.884 838.512 428.884C837.85 428.884 837.322 429.099 836.93 429.528C836.538 429.948 836.342 430.559 836.342 431.362V435.59H835.068V427.918H836.342V429.024C836.594 428.623 836.93 428.315 837.35 428.1C837.78 427.885 838.251 427.778 838.764 427.778C839.408 427.778 839.978 427.923 840.472 428.212C840.967 428.501 841.336 428.926 841.578 429.486C841.793 428.945 842.148 428.525 842.642 428.226C843.137 427.927 843.688 427.778 844.294 427.778ZM856.492 431.46C856.492 431.703 856.478 431.959 856.45 432.23H850.318C850.365 432.986 850.622 433.579 851.088 434.008C851.564 434.428 852.138 434.638 852.81 434.638C853.361 434.638 853.818 434.512 854.182 434.26C854.556 433.999 854.817 433.653 854.966 433.224H856.338C856.133 433.961 855.722 434.563 855.106 435.03C854.49 435.487 853.725 435.716 852.81 435.716C852.082 435.716 851.429 435.553 850.85 435.226C850.281 434.899 849.833 434.437 849.506 433.84C849.18 433.233 849.016 432.533 849.016 431.74C849.016 430.947 849.175 430.251 849.492 429.654C849.81 429.057 850.253 428.599 850.822 428.282C851.401 427.955 852.064 427.792 852.81 427.792C853.538 427.792 854.182 427.951 854.742 428.268C855.302 428.585 855.732 429.024 856.03 429.584C856.338 430.135 856.492 430.76 856.492 431.46ZM855.176 431.194C855.176 430.709 855.069 430.293 854.854 429.948C854.64 429.593 854.346 429.327 853.972 429.15C853.608 428.963 853.202 428.87 852.754 428.87C852.11 428.87 851.56 429.075 851.102 429.486C850.654 429.897 850.398 430.466 850.332 431.194H855.176ZM861.912 427.778C862.845 427.778 863.601 428.063 864.18 428.632C864.759 429.192 865.048 430.004 865.048 431.068V435.59H863.788V431.25C863.788 430.485 863.597 429.901 863.214 429.5C862.831 429.089 862.309 428.884 861.646 428.884C860.974 428.884 860.437 429.094 860.036 429.514C859.644 429.934 859.448 430.545 859.448 431.348V435.59H858.174V427.918H859.448V429.01C859.7 428.618 860.041 428.315 860.47 428.1C860.909 427.885 861.389 427.778 861.912 427.778ZM868.683 428.968V433.49C868.683 433.863 868.762 434.129 868.921 434.288C869.08 434.437 869.355 434.512 869.747 434.512H870.685V435.59H869.537C868.828 435.59 868.296 435.427 867.941 435.1C867.586 434.773 867.409 434.237 867.409 433.49V428.968H866.415V427.918H867.409V425.986H868.683V427.918H870.685V428.968H868.683Z" fill="#1A1A1A"/>
<path d="M646.841 480.709V442.82" stroke="#1A1A1A" stroke-width="0.737769"/>
<path d="M597.283 425.832C598.347 425.832 599.266 426.033 600.041 426.434C600.825 426.826 601.422 427.391 601.833 428.128C602.253 428.865 602.463 429.733 602.463 430.732C602.463 431.731 602.253 432.599 601.833 433.336C601.422 434.064 600.825 434.624 600.041 435.016C599.266 435.399 598.347 435.59 597.283 435.59H594.245V425.832H597.283ZM597.283 434.54C598.543 434.54 599.504 434.209 600.167 433.546C600.829 432.874 601.161 431.936 601.161 430.732C601.161 429.519 600.825 428.571 600.153 427.89C599.49 427.209 598.533 426.868 597.283 426.868H595.519V434.54H597.283ZM611.143 431.46C611.143 431.703 611.129 431.959 611.101 432.23H604.969C605.016 432.986 605.273 433.579 605.739 434.008C606.215 434.428 606.789 434.638 607.461 434.638C608.012 434.638 608.469 434.512 608.833 434.26C609.207 433.999 609.468 433.653 609.617 433.224H610.989C610.784 433.961 610.373 434.563 609.757 435.03C609.141 435.487 608.376 435.716 607.461 435.716C606.733 435.716 606.08 435.553 605.501 435.226C604.932 434.899 604.484 434.437 604.157 433.84C603.831 433.233 603.667 432.533 603.667 431.74C603.667 430.947 603.826 430.251 604.143 429.654C604.461 429.057 604.904 428.599 605.473 428.282C606.052 427.955 606.715 427.792 607.461 427.792C608.189 427.792 608.833 427.951 609.393 428.268C609.953 428.585 610.383 429.024 610.681 429.584C610.989 430.135 611.143 430.76 611.143 431.46ZM609.827 431.194C609.827 430.709 609.72 430.293 609.505 429.948C609.291 429.593 608.997 429.327 608.623 429.15C608.259 428.963 607.853 428.87 607.405 428.87C606.761 428.87 606.211 429.075 605.753 429.486C605.305 429.897 605.049 430.466 604.983 431.194H609.827ZM615.541 435.716C614.953 435.716 614.425 435.618 613.959 435.422C613.492 435.217 613.123 434.937 612.853 434.582C612.582 434.218 612.433 433.803 612.405 433.336H613.721C613.758 433.719 613.935 434.031 614.253 434.274C614.579 434.517 615.004 434.638 615.527 434.638C616.012 434.638 616.395 434.531 616.675 434.316C616.955 434.101 617.095 433.831 617.095 433.504C617.095 433.168 616.945 432.921 616.647 432.762C616.348 432.594 615.886 432.431 615.261 432.272C614.691 432.123 614.225 431.973 613.861 431.824C613.506 431.665 613.198 431.437 612.937 431.138C612.685 430.83 612.559 430.429 612.559 429.934C612.559 429.542 612.675 429.183 612.909 428.856C613.142 428.529 613.473 428.273 613.903 428.086C614.332 427.89 614.822 427.792 615.373 427.792C616.222 427.792 616.908 428.007 617.431 428.436C617.953 428.865 618.233 429.453 618.271 430.2H616.997C616.969 429.799 616.805 429.477 616.507 429.234C616.217 428.991 615.825 428.87 615.331 428.87C614.873 428.87 614.509 428.968 614.239 429.164C613.968 429.36 613.833 429.617 613.833 429.934C613.833 430.186 613.912 430.396 614.071 430.564C614.239 430.723 614.444 430.853 614.687 430.956C614.939 431.049 615.284 431.157 615.723 431.278C616.273 431.427 616.721 431.577 617.067 431.726C617.412 431.866 617.706 432.081 617.949 432.37C618.201 432.659 618.331 433.037 618.341 433.504C618.341 433.924 618.224 434.302 617.991 434.638C617.757 434.974 617.426 435.24 616.997 435.436C616.577 435.623 616.091 435.716 615.541 435.716ZM620.797 426.672C620.555 426.672 620.349 426.588 620.181 426.42C620.013 426.252 619.929 426.047 619.929 425.804C619.929 425.561 620.013 425.356 620.181 425.188C620.349 425.02 620.555 424.936 620.797 424.936C621.031 424.936 621.227 425.02 621.385 425.188C621.553 425.356 621.637 425.561 621.637 425.804C621.637 426.047 621.553 426.252 621.385 426.42C621.227 426.588 621.031 426.672 620.797 426.672ZM621.413 427.918V435.59H620.139V427.918H621.413ZM626.749 427.792C627.411 427.792 627.99 427.937 628.485 428.226C628.989 428.515 629.362 428.879 629.605 429.318V427.918H630.893V435.758C630.893 436.458 630.743 437.079 630.445 437.62C630.146 438.171 629.717 438.6 629.157 438.908C628.606 439.216 627.962 439.37 627.225 439.37C626.217 439.37 625.377 439.132 624.705 438.656C624.033 438.18 623.636 437.531 623.515 436.71H624.775C624.915 437.177 625.204 437.55 625.643 437.83C626.081 438.119 626.609 438.264 627.225 438.264C627.925 438.264 628.494 438.045 628.933 437.606C629.381 437.167 629.605 436.551 629.605 435.758V434.148C629.353 434.596 628.979 434.969 628.485 435.268C627.99 435.567 627.411 435.716 626.749 435.716C626.067 435.716 625.447 435.548 624.887 435.212C624.336 434.876 623.902 434.405 623.585 433.798C623.267 433.191 623.109 432.501 623.109 431.726C623.109 430.942 623.267 430.256 623.585 429.668C623.902 429.071 624.336 428.609 624.887 428.282C625.447 427.955 626.067 427.792 626.749 427.792ZM629.605 431.74C629.605 431.161 629.488 430.657 629.255 430.228C629.021 429.799 628.704 429.472 628.303 429.248C627.911 429.015 627.477 428.898 627.001 428.898C626.525 428.898 626.091 429.01 625.699 429.234C625.307 429.458 624.994 429.785 624.761 430.214C624.527 430.643 624.411 431.147 624.411 431.726C624.411 432.314 624.527 432.827 624.761 433.266C624.994 433.695 625.307 434.027 625.699 434.26C626.091 434.484 626.525 434.596 627.001 434.596C627.477 434.596 627.911 434.484 628.303 434.26C628.704 434.027 629.021 433.695 629.255 433.266C629.488 432.827 629.605 432.319 629.605 431.74ZM636.784 427.778C637.717 427.778 638.473 428.063 639.052 428.632C639.63 429.192 639.92 430.004 639.92 431.068V435.59H638.66V431.25C638.66 430.485 638.468 429.901 638.086 429.5C637.703 429.089 637.18 428.884 636.518 428.884C635.846 428.884 635.309 429.094 634.908 429.514C634.516 429.934 634.32 430.545 634.32 431.348V435.59H633.046V427.918H634.32V429.01C634.572 428.618 634.912 428.315 635.342 428.1C635.78 427.885 636.261 427.778 636.784 427.778ZM653.559 437.438L651.613 435.492C651.137 435.623 650.652 435.688 650.157 435.688C649.252 435.688 648.426 435.478 647.679 435.058C646.932 434.629 646.34 434.036 645.901 433.28C645.472 432.515 645.257 431.656 645.257 430.704C645.257 429.752 645.472 428.898 645.901 428.142C646.34 427.377 646.932 426.784 647.679 426.364C648.426 425.935 649.252 425.72 650.157 425.72C651.072 425.72 651.902 425.935 652.649 426.364C653.396 426.784 653.984 427.372 654.413 428.128C654.842 428.884 655.057 429.743 655.057 430.704C655.057 431.637 654.852 432.477 654.441 433.224C654.03 433.971 653.466 434.559 652.747 434.988L655.211 437.438H653.559ZM646.559 430.704C646.559 431.479 646.713 432.16 647.021 432.748C647.338 433.336 647.768 433.789 648.309 434.106C648.86 434.423 649.476 434.582 650.157 434.582C650.838 434.582 651.45 434.423 651.991 434.106C652.542 433.789 652.971 433.336 653.279 432.748C653.596 432.16 653.755 431.479 653.755 430.704C653.755 429.92 653.596 429.239 653.279 428.66C652.971 428.072 652.546 427.619 652.005 427.302C651.464 426.985 650.848 426.826 650.157 426.826C649.466 426.826 648.85 426.985 648.309 427.302C647.768 427.619 647.338 428.072 647.021 428.66C646.713 429.239 646.559 429.92 646.559 430.704ZM662.534 433.42H658.278L657.494 435.59H656.15L659.678 425.888H661.148L664.662 435.59H663.318L662.534 433.42ZM662.17 432.384L660.406 427.456L658.642 432.384H662.17ZM675.07 435.59L672.746 431.6H671.206V435.59H669.932V425.832H673.082C673.82 425.832 674.44 425.958 674.944 426.21C675.458 426.462 675.84 426.803 676.092 427.232C676.344 427.661 676.47 428.151 676.47 428.702C676.47 429.374 676.274 429.967 675.882 430.48C675.5 430.993 674.921 431.334 674.146 431.502L676.596 435.59H675.07ZM671.206 430.578H673.082C673.773 430.578 674.291 430.41 674.636 430.074C674.982 429.729 675.154 429.271 675.154 428.702C675.154 428.123 674.982 427.675 674.636 427.358C674.3 427.041 673.782 426.882 673.082 426.882H671.206V430.578ZM685.45 431.46C685.45 431.703 685.436 431.959 685.408 432.23H679.276C679.322 432.986 679.579 433.579 680.046 434.008C680.522 434.428 681.096 434.638 681.768 434.638C682.318 434.638 682.776 434.512 683.14 434.26C683.513 433.999 683.774 433.653 683.924 433.224H685.296C685.09 433.961 684.68 434.563 684.064 435.03C683.448 435.487 682.682 435.716 681.768 435.716C681.04 435.716 680.386 435.553 679.808 435.226C679.238 434.899 678.79 434.437 678.464 433.84C678.137 433.233 677.974 432.533 677.974 431.74C677.974 430.947 678.132 430.251 678.45 429.654C678.767 429.057 679.21 428.599 679.78 428.282C680.358 427.955 681.021 427.792 681.768 427.792C682.496 427.792 683.14 427.951 683.7 428.268C684.26 428.585 684.689 429.024 684.988 429.584C685.296 430.135 685.45 430.76 685.45 431.46ZM684.134 431.194C684.134 430.709 684.026 430.293 683.812 429.948C683.597 429.593 683.303 429.327 682.93 429.15C682.566 428.963 682.16 428.87 681.712 428.87C681.068 428.87 680.517 429.075 680.06 429.486C679.612 429.897 679.355 430.466 679.29 431.194H684.134ZM689.987 434.414L692.367 427.918H693.725L690.715 435.59H689.231L686.221 427.918H687.593L689.987 434.414ZM695.637 426.672C695.394 426.672 695.189 426.588 695.021 426.42C694.853 426.252 694.769 426.047 694.769 425.804C694.769 425.561 694.853 425.356 695.021 425.188C695.189 425.02 695.394 424.936 695.637 424.936C695.87 424.936 696.066 425.02 696.225 425.188C696.393 425.356 696.477 425.561 696.477 425.804C696.477 426.047 696.393 426.252 696.225 426.42C696.066 426.588 695.87 426.672 695.637 426.672ZM696.253 427.918V435.59H694.979V427.918H696.253ZM705.424 431.46C705.424 431.703 705.41 431.959 705.382 432.23H699.25C699.297 432.986 699.554 433.579 700.02 434.008C700.496 434.428 701.07 434.638 701.742 434.638C702.293 434.638 702.75 434.512 703.114 434.26C703.488 433.999 703.749 433.653 703.898 433.224H705.27C705.065 433.961 704.654 434.563 704.038 435.03C703.422 435.487 702.657 435.716 701.742 435.716C701.014 435.716 700.361 435.553 699.782 435.226C699.213 434.899 698.765 434.437 698.438 433.84C698.112 433.233 697.948 432.533 697.948 431.74C697.948 430.947 698.107 430.251 698.424 429.654C698.742 429.057 699.185 428.599 699.754 428.282C700.333 427.955 700.996 427.792 701.742 427.792C702.47 427.792 703.114 427.951 703.674 428.268C704.234 428.585 704.664 429.024 704.962 429.584C705.27 430.135 705.424 430.76 705.424 431.46ZM704.108 431.194C704.108 430.709 704.001 430.293 703.786 429.948C703.572 429.593 703.278 429.327 702.904 429.15C702.54 428.963 702.134 428.87 701.686 428.87C701.042 428.87 700.492 429.075 700.034 429.486C699.586 429.897 699.33 430.466 699.264 431.194H704.108ZM717.326 427.918L714.932 435.59H713.616L711.768 429.5L709.92 435.59H708.604L706.196 427.918H707.498L709.262 434.358L711.166 427.918H712.468L714.33 434.372L716.066 427.918H717.326Z" fill="#1A1A1A"/>
</g>
<defs>
<clipPath id="clip0_451_1021">
<rect width="977" height="596" fill="white"/>
</clipPath>
</defs>
</svg>
